<svg width="128" height="116" viewBox="0 0 128 116" fill="none" xmlns="http://www.w3.org/2000/svg">
<path fill-rule="evenodd" clip-rule="evenodd" d="M127.415 60.1993C127.369 60.3269 127.255 60.6471 127.11 61.05C127.238 61.112 127.376 61.1781 127.569 61.2709C127.667 61.6269 128.209 62.0036 127.88 62.4852C127.583 62.9184 128.366 63.3762 127.768 63.7277C127.869 64.6364 127.23 65.292 126.808 65.9269C126.426 66.5028 126.332 67.2219 125.754 67.7221C125.251 68.1573 124.968 68.8477 124.587 69.4276C124.255 69.4427 123.947 69.4558 123.52 69.475C123.597 69.7211 123.655 69.9056 123.746 70.1966C123.631 70.3257 123.442 70.539 123.238 70.77C123.364 71.1583 123.483 71.5234 123.622 71.952C123.424 72.1784 123.227 72.4033 123.011 72.6489C123.181 72.7094 123.34 72.7659 123.61 72.8622C123.301 73.0816 123.047 73.2621 122.779 73.4517C122.831 73.5127 122.912 73.607 123.038 73.7548C122.128 74.0937 121.317 73.2777 120.313 73.6721C119.693 74.1194 119.233 75.0321 118.311 75.3695C117.956 75.5001 118.26 76.1516 117.651 76.075C117.434 76.0477 117.594 76.7457 117.086 76.61C116.896 77.2424 116.332 77.4965 115.887 77.8949C115.517 78.2247 115.18 78.6548 114.882 79.085C114.634 79.443 114.369 79.79 114.107 80.1379C113.869 80.4531 113.59 80.7431 113.395 81.0819C113.228 81.3709 113.242 81.8646 113.017 81.9952C112.715 82.1707 112.508 82.3603 112.444 82.7682C112.146 82.5907 111.965 82.4828 111.782 82.3739C111.214 82.6518 110.644 82.916 110.079 82.2211V80.7773C108.991 80.1647 107.854 79.6296 107.344 78.2444C107.384 77.7875 107.162 77.14 107.602 76.6055C106.964 75.3306 107.518 74.2515 108.133 73.1885C108.872 71.9091 109.843 70.8169 110.981 69.8108C110.312 68.8068 109.613 67.8714 109.042 66.8633C108.65 66.1699 108.216 65.4135 108.195 64.6203C108.172 63.7983 107.914 62.9405 108.404 62.107C108.623 61.7338 108.412 61.1932 108.658 60.7016C108.805 60.4061 108.897 60.0778 109.123 59.7944C109.246 59.6416 109.24 59.3859 109.341 58.9805C109.568 58.7702 110.136 58.4868 110.254 58.0753C110.425 57.4772 111.191 57.7051 111.18 57.0057C111.378 57.1555 111.465 57.222 111.602 57.3254C111.919 57.2316 112.277 57.1257 112.65 57.0158C112.787 57.274 112.901 57.4903 113.04 57.7536C112.766 58.2493 112.467 58.7908 112.123 59.4131C112.803 59.3461 113.328 59.2936 113.776 59.2492C113.959 59.4323 114.056 59.5291 114.164 59.637C113.981 59.9971 113.796 60.3612 113.552 60.8417C113.983 60.8861 114.317 60.9204 114.733 60.9628C114.63 61.4489 114.528 61.9365 114.428 62.4161C114.252 62.5724 114.063 62.7419 113.868 62.9163C113.991 63.0399 114.042 63.106 114.053 63.0994C114.233 63.0001 114.408 62.8916 114.621 62.7625C114.693 62.9552 114.738 63.0737 114.796 63.227C114.407 63.4242 114.037 63.6117 113.615 63.8251C113.81 63.8906 113.966 63.9425 114.253 64.0384C113.925 64.3666 113.634 64.6581 113.255 65.0388C113.739 65.4206 114.167 65.7595 114.627 66.1225C115.303 66.2511 115.847 65.9657 116.379 65.5058C117.61 64.4433 118.963 63.5159 120.176 62.4479C121.417 61.3541 122.738 60.2825 123.622 58.8171C123.829 58.4742 124.192 58.2261 124.504 57.9144H125.951C126.03 58.0148 126.167 58.1877 126.308 58.3652C126.149 58.8166 125.987 59.2815 125.775 59.8856C126.214 59.7651 126.57 59.6673 127.033 59.5397C127.106 59.6658 127.22 59.8619 127.415 60.1993Z" fill="#26262F"/>
<path fill-rule="evenodd" clip-rule="evenodd" d="M40.1401 89.1627C39.6938 89.3009 39.3272 89.4149 38.8532 89.5616C38.9686 89.314 39.0448 89.1506 39.1411 88.9434C38.8254 88.4678 38.4684 88.0422 37.8154 88.1365C37.7649 87.9439 37.7327 87.8198 37.6873 87.6474H36.5511C36.4377 87.5339 36.3393 87.4799 36.3136 87.4023C36.1396 86.8778 36.1028 86.2546 35.7872 85.8431C35.3807 85.3141 35.5829 84.7952 35.5643 84.2828C35.5486 83.8668 35.7166 83.4407 35.8189 83.0231C36.186 81.5305 36.7539 80.1109 37.477 78.761C37.9223 77.931 38.421 77.1226 38.9676 76.3556C39.5017 75.6062 40.1275 74.9219 40.7311 74.1862C40.5672 74.0813 40.3877 73.9593 40.2011 73.8488C38.3973 72.7818 36.8174 71.4384 35.3525 69.9487C34.6611 69.2458 34.6571 68.3023 34.4554 67.4339C34.3742 67.0865 34.4422 66.7037 34.4422 66.3371C34.8119 65.6321 35.5567 65.5726 36.2793 65.2852C36.5229 65.7138 36.773 66.1546 37.0554 66.6503C37.1048 66.614 37.1906 66.5509 37.3444 66.4375C37.4387 66.5313 37.6046 66.6215 37.651 66.7541C37.9384 67.5716 38.6061 67.9876 39.3156 68.3416C40.7593 69.0632 42.2162 69.7566 43.7663 70.5095C44.1289 70.1262 44.4915 69.5383 45.018 69.2443C45.5031 68.973 45.5283 68.1969 46.2847 68.2715C46.1768 68.1389 46.1016 68.0466 45.9897 67.9094C46.2217 67.7471 46.4567 67.5827 46.7839 67.3537C46.8873 67.1258 47.0451 66.7783 47.1995 66.438C47.4334 66.4243 47.6508 66.4117 47.9639 66.3936C47.8308 66.2221 47.7612 66.1329 47.6533 65.9937C48.2373 65.9085 48.2761 65.3038 48.6437 64.9791C49.032 64.6357 49.3068 64.1642 49.675 63.6922C49.7566 63.7522 49.8419 63.8147 50.0042 63.9342C50.0759 63.7658 50.1429 63.6069 50.2271 63.4078C50.3265 63.4879 50.4183 63.5616 50.5837 63.6957C50.7637 62.73 51.3113 61.9554 51.8933 61.259C52.4929 60.5409 53.0319 59.7164 54.0133 59.2359C54.1363 59.3372 54.3012 59.4729 54.4878 59.6262C54.1 60.371 53.7243 61.1093 52.9296 61.4981V62.5979C53.1177 62.552 53.3088 62.5606 53.3486 62.4869C53.508 62.1899 53.6204 61.8677 53.6835 61.7159C54.337 61.1773 54.871 60.7376 55.5447 60.1829C55.5831 60.6968 55.6073 61.0321 55.6315 61.3538C55.4262 61.4381 55.2699 61.5021 55.1055 61.5697C55.1479 61.6287 55.2008 61.7426 55.2291 61.7366C55.5629 61.668 55.8932 61.5813 56.2991 61.4809C56.4141 61.6836 56.5543 61.9302 56.6955 62.1783C56.6199 62.2625 56.5296 62.3624 56.4323 62.4703C56.4898 62.8687 56.9688 63.2202 56.5982 63.6765C56.4903 63.5792 56.3945 63.4925 56.2966 63.4032C56.2512 63.4884 56.163 63.5787 56.1811 63.6357C56.2316 63.7971 56.3259 63.9448 56.4318 64.1536C56.3561 64.852 55.7979 65.3159 55.28 65.7874C54.7898 66.2337 54.2508 66.6256 53.6204 67.1313C53.8796 67.2801 54.105 67.4102 54.3587 67.5564C54.2003 67.8605 54.1045 68.0441 54.0037 68.2367C54.0622 68.3018 54.1499 68.3976 54.2861 68.5479C53.987 68.5958 53.7349 68.6366 53.3733 68.6956C53.4717 68.9462 53.5559 69.1595 53.6532 69.4071H52.7374C52.5675 69.7556 52.4192 70.0597 52.278 70.3491C52.4091 70.4903 52.5009 70.5892 52.633 70.7314C52.3522 70.7833 52.1005 70.8302 51.7344 70.8988C51.8232 71.1328 51.9044 71.3436 51.9997 71.5942C51.7647 71.629 51.5115 71.6663 51.1817 71.7147C51.2786 71.9759 51.3572 72.1877 51.4873 72.5387C51.1293 72.3995 50.8686 72.2982 50.5539 72.1761C50.4057 72.4585 50.2544 72.747 50.1071 73.0274C50.1596 73.1272 50.1802 73.2366 50.2423 73.2704C50.3517 73.3299 50.4994 73.3188 50.6079 73.3793C51.0289 73.6143 51.1273 74.159 51.5413 74.3924C51.9876 74.6446 52.1817 75.0772 52.4661 75.4625C52.7223 75.8095 52.9124 76.1019 52.8837 76.5412C52.8736 76.6914 53.0077 76.8508 53.0909 77.0389C53.0183 77.1624 52.9144 77.3384 52.7727 77.5795C52.4011 77.6223 52.1308 78.1201 51.4525 77.8573C50.268 77.3979 49.035 76.9864 47.7486 76.8316C47.677 76.8231 47.618 76.7091 47.501 76.5921C47.1248 77.0162 46.7512 77.4373 46.2822 77.9663C46.2761 78.0162 46.2509 78.2325 46.2232 78.466C45.9599 78.5073 45.7078 78.5472 45.316 78.6087C45.5747 78.9718 45.7678 79.2431 46.0558 79.6475C45.7305 79.5522 45.5137 79.4892 45.2383 79.4085C45.1813 79.4761 45.0659 79.6127 44.9403 79.761C45.0996 80.2012 44.9716 80.4705 44.4557 80.7635C44.3014 81.3182 44.1531 81.8512 44.0296 82.296C43.7966 82.3817 43.6665 82.4296 43.4986 82.4916L43.7996 82.7927C43.3886 83.1074 42.9171 83.362 42.5984 83.7443C42.3105 84.0887 42.1905 84.5728 41.9666 85.0609C41.9883 85.0942 42.0785 85.2294 42.2217 85.4437C41.9187 85.7558 41.6211 86.0624 41.3347 86.3569C41.4462 86.4961 41.5284 86.5985 41.6706 86.776C41.4683 87.0069 41.2697 87.2339 41.0483 87.4865V88.2883C40.7235 88.601 40.3942 88.9181 40.1401 89.1627Z" fill="#26262F"/>
<path fill-rule="evenodd" clip-rule="evenodd" d="M73.9606 94.6433C74.596 95.4118 74.5965 95.4133 75.3675 94.9872C75.3892 95.2333 75.3816 95.4476 75.4346 95.6453C75.4724 95.7855 75.5914 95.904 75.6681 96.023C75.5702 96.1213 75.5052 96.1859 75.4225 96.2686C75.6146 96.3584 75.7982 96.4446 76.0987 96.5853C75.7861 97.0306 75.4911 97.4501 75.1966 97.8702C75.5763 98.553 74.773 98.674 74.6575 99.0396C74.4795 99.6044 73.7927 99.7259 73.773 100.33C73.7503 101.034 73.0282 101.12 72.7145 101.53C72.4422 101.887 71.9581 102.12 71.8956 102.575C72.004 102.76 72.0897 102.907 72.2304 103.148C71.8234 103.378 71.4689 103.58 71.1134 103.781L70.2557 104.186C69.9949 104.494 69.7342 104.801 69.3858 105.212V105.482C68.5078 106.127 67.6879 106.73 66.7358 107.43C67.0081 107.569 67.173 107.653 67.4463 107.793C67.0681 108.322 66.6854 108.857 66.2739 109.433C67.3303 109.793 68.3243 110.132 69.3495 110.482C69.2481 110.686 69.1624 110.858 69.0464 111.091C69.5033 111.254 69.9304 111.406 70.418 111.58V112.178C70.7246 112.46 70.9934 112.707 71.2718 112.963C71.2889 113.286 71.3045 113.595 71.3202 113.89L71.8189 114.388L70.5537 115.441C70.2556 115.773 69.945 115.711 69.6112 115.49C69.5098 115.423 69.3676 115.384 69.2446 115.387C67.8245 115.418 66.5411 114.877 65.2492 114.405C64.2961 114.057 63.3788 113.612 62.3904 113.186C62.1206 113.455 61.7006 113.659 61.6466 114.213C61.0758 114.348 60.4903 114.488 59.9427 114.617C59.6603 114.331 59.4349 114.103 59.2089 113.874C59.2947 113.78 59.3834 113.682 59.5145 113.537C59.3784 113.254 59.2316 112.949 59.1439 112.767C58.7188 112.833 58.3426 112.891 57.9755 112.948C57.7723 112.546 57.5897 112.184 57.4026 111.813C57.3114 111.904 57.2468 111.969 57.2231 111.992C56.919 111.683 56.6124 111.372 56.1888 110.943C56.3204 109.988 55.7098 108.893 55.8737 107.708C55.9085 107.46 55.7183 107.101 55.5181 106.913C54.7068 106.152 54.672 105.052 54.2907 104.115C54.145 103.758 53.9897 103.304 53.9771 102.872C53.9559 102.185 53.8757 101.48 53.9932 100.814C54.1788 99.7592 54.3785 98.6347 55.6064 98.2196C56.0123 98.0825 56.4591 98.0673 56.9942 97.9786V100.123C57.4596 99.8237 57.7713 99.623 58.2362 99.3235C58.3007 99.5131 58.3784 99.739 58.4551 99.9649C58.5241 99.9125 58.5932 99.8601 58.6623 99.8076V101.073C58.8988 100.953 59.0698 100.866 59.2311 100.784C59.8146 101.294 59.7995 101.948 59.7188 102.62C59.9139 102.689 60.0728 102.745 60.3274 102.835C60.219 103.13 60.1106 103.422 59.9795 103.776C60.1383 103.747 60.218 103.756 60.2624 103.72C60.3693 103.635 60.4429 103.484 60.5599 103.439C61.7344 102.993 62.3254 101.745 63.5044 101.31C63.7414 100.457 64.6415 100.275 65.1675 99.6992C65.7146 99.1011 66.4867 98.7118 67.1468 98.2131C67.7857 97.73 68.1458 96.9161 68.9793 96.6604C69.527 95.6635 70.3152 94.9081 71.296 94.3443C71.2617 93.669 72.1906 93.5853 72.1689 92.8733H73.4089C73.4977 92.9615 73.6273 93.0911 73.7568 93.2207C73.1633 93.5162 72.9465 94.0896 72.5668 94.6957C73.3882 94.8657 73.8612 93.8657 74.6353 94.3271C74.4114 94.432 74.2283 94.5177 73.9606 94.6433Z" fill="#26262F"/>
<path fill-rule="evenodd" clip-rule="evenodd" d="M70.7707 80.1077C70.7066 79.4647 71.6113 79.3941 71.1827 78.795C71.0732 78.8929 70.9759 78.9791 70.8786 79.0653C70.8463 79.0325 70.7903 79.0038 70.7848 78.9675C70.6829 78.2938 70.7238 77.6549 71.2018 77.1057C71.7278 76.5026 72.2492 75.8944 72.7535 75.2732C72.9128 75.077 73.0112 74.8314 73.168 74.5551C72.9189 73.9061 72.5775 73.2333 72.281 72.5647C71.9628 71.8466 71.9698 71.068 71.6239 70.3575C71.4399 69.9803 71.9199 69.3181 71.8075 68.8562C71.6809 68.3393 71.3758 67.8996 71.8216 67.4125C71.8307 66.0499 72.757 65.2007 73.5674 64.2547H75.8583C75.9925 64.3818 76.1251 64.5078 76.3399 64.7111C75.9915 65.1553 75.6425 65.5996 75.2567 66.0913C75.2996 66.183 75.403 66.4024 75.5411 66.6964C75.6702 66.6964 75.9173 66.7705 76.0056 66.6833C76.3883 66.3076 76.8306 66.4594 77.2335 66.415C77.3823 66.7372 77.5063 67.0065 77.6445 67.3056C77.4377 67.5638 77.2244 67.8305 76.9007 68.2344C77.3903 68.297 77.7186 68.3388 78.1503 68.3938V69.712C79.0792 69.7422 79.181 68.6172 79.9632 68.6217C80.3182 68.0811 80.8361 67.705 81.3025 67.2738C81.8406 66.7771 82.3524 66.2506 82.8597 65.7216C83.3267 65.234 83.8007 64.7484 84.2203 64.2219C84.6519 63.6793 85.0231 63.0883 85.2727 62.7303C85.841 62.5265 86.1612 62.4116 86.5586 62.2693C86.6887 62.4544 86.902 62.6425 86.9565 62.8689C86.9983 63.0429 86.8597 63.2744 86.7664 63.4625C86.66 63.6763 86.5142 63.8699 86.5157 64.2461C86.9166 64.0772 87.3175 63.9077 87.7588 63.7217C87.9943 64.1806 88.2464 64.6717 88.6287 65.4165C88.6287 65.4009 88.6065 65.6717 88.6362 65.9365C88.6594 66.1422 88.7467 66.3409 88.8238 66.6046C88.7694 66.6994 88.6695 66.8749 88.5772 67.0373C88.7159 67.1871 88.8082 67.2864 88.8904 67.3747C88.0936 68.6505 87.3765 69.9712 86.5026 71.2062C85.7689 72.2429 85.8718 72.3156 85.3342 72.6091C85.4199 72.7044 85.5067 72.8002 85.5763 72.8773C84.488 74.0967 83.4089 75.3064 82.3136 76.5344V76.9907C83.1739 77.5389 84.0064 78.0689 84.8768 78.6231C84.7508 78.8702 84.6736 79.0214 84.5546 79.2559C84.8839 79.5388 85.1053 80.083 85.7427 79.8822C85.8824 80.1596 85.9963 80.386 86.1083 80.6089C86.0281 80.7209 85.9283 80.8595 85.7916 81.0497C86.1365 81.3951 86.4461 81.7052 86.781 82.0406C86.6534 82.3688 86.545 82.6487 86.4245 82.9588C86.5127 83.1101 86.6186 83.2927 86.7164 83.4606C86.668 83.565 86.6529 83.6729 86.5929 83.7127C86.4577 83.801 86.2591 83.8181 86.1602 83.9301C85.5687 84.5977 85.4628 84.6351 84.719 84.3809C83.7558 84.0516 82.72 83.858 81.8401 83.3774C80.6611 82.7339 79.6016 81.8716 78.3838 81.029C77.8724 81.4072 77.2986 81.9261 76.7459 82.5166C76.2113 83.0879 75.5069 83.5408 74.5275 83.8323C74.7 83.5473 74.7706 83.4309 74.9234 83.1767C74.3097 83.2912 73.7948 83.387 73.2805 83.4828L73.1922 83.3058C73.5018 83.0642 73.811 82.8232 74.1206 82.5822L73.642 82.1036H72.7031C72.578 81.7894 72.4388 81.4374 72.2744 81.0239H71.1348C70.9779 80.6291 70.8372 80.2751 70.7707 80.1077Z" fill="#26262F"/>
<path fill-rule="evenodd" clip-rule="evenodd" d="M76.7359 53.1227C76.2639 53.2356 75.8478 53.3355 75.2609 53.4762C74.6583 53.0309 73.9376 52.4762 73.1938 51.9558C72.3068 51.335 71.5363 50.5443 70.5237 50.1071C70.2892 50.0057 70.0431 49.9326 69.7173 49.8156C69.3225 49.2241 69.2766 48.1258 68.1183 48.2468C67.5943 47.7677 67.5303 46.9357 66.7643 46.855C66.5137 46.4279 66.3553 45.9392 66.026 45.6341C64.5228 44.2398 63.4351 42.5651 62.4996 40.5445C62.4184 39.9207 62.4179 39.0891 62.2833 38.255C62.0715 36.9414 62.7714 35.8133 63.9091 35.0852C64.2232 34.8845 64.3851 34.4432 64.907 34.4901C65.2701 34.5229 65.6534 34.3297 66.1355 34.2112C66.2782 34.3383 66.4673 34.5062 66.7058 34.718C66.318 35.3691 65.5848 35.7801 65.5293 36.6545C66.3921 36.9424 66.7789 35.9838 67.6473 35.8733C67.7532 35.9681 67.9413 36.1356 68.1178 36.2939C67.8102 36.7553 67.6029 37.066 67.2212 37.6383C67.8147 37.4507 68.2368 37.4477 68.3926 37.2425C68.7864 36.723 69.4234 36.5148 69.793 35.9369C70.1374 35.3988 70.7022 34.9979 71.2796 34.6227C72.096 34.0927 72.7576 33.3308 73.5231 32.7145C74.6482 31.8089 75.7026 30.8164 76.9557 30.0636C77.4515 29.7665 77.8181 29.2492 78.2296 28.818C78.6037 28.4257 79.1983 28.2542 79.3158 27.6693H81.1655V28.8624C81.114 28.9138 80.9365 29.0913 80.7227 29.3056C80.9678 29.2618 81.2124 29.227 81.4524 29.1725C81.6965 29.117 81.9365 29.0424 82.3066 28.941C82.2502 29.8291 82.293 30.6152 82.9345 31.1881C82.7993 31.3701 82.7222 31.474 82.5668 31.6843C82.7625 31.7922 82.9894 31.9163 83.4115 32.1477C82.9768 32.2667 82.8291 32.3071 82.6274 32.3626C82.704 32.5381 82.8069 32.7019 82.8442 32.88C82.882 33.0554 82.8528 33.2445 82.8528 33.4246C82.3429 34.1245 81.8326 34.8244 81.2724 35.593C81.1695 35.6046 80.9526 35.6283 80.6339 35.6631C80.7308 35.7962 80.7903 35.8794 80.8684 35.9873C80.7862 36.184 80.695 36.4023 80.5926 36.6454C79.3823 36.5869 79.3738 37.834 78.6254 38.3196C78.7838 38.5279 78.8624 38.6312 78.8982 38.6786C78.4005 39.1769 77.8982 39.6791 77.3909 40.1859C77.4318 40.2232 77.3667 40.1642 77.395 40.1895C77.1691 40.4149 76.9361 40.6478 76.7031 40.8813C76.6275 40.8223 76.5523 40.7638 76.4767 40.7048V41.429C76.3168 41.2974 76.224 41.2207 76.0158 41.0498C76.0617 41.3584 76.0924 41.5636 76.1353 41.8521C75.7919 42.2968 75.3789 42.8319 74.9316 43.4118C74.7304 43.2645 74.5932 43.1632 74.4712 43.0734C73.976 43.6523 73.4682 44.2459 72.9558 44.8449C73.153 44.9433 73.335 45.0335 73.6003 45.1652C73.3532 45.4783 73.1409 45.7476 72.9417 46.0002C72.974 46.1117 72.974 46.2146 73.0249 46.272C73.8625 47.211 74.8559 48.0506 75.509 49.1026C76.2447 50.2871 77.164 51.51 76.7359 53.1227Z" fill="#26262F"/>
<path fill-rule="evenodd" clip-rule="evenodd" d="M95.8173 33.2399C95.902 33.1551 95.9671 33.0901 96.0342 33.023C95.9847 32.9595 95.9429 32.8864 95.8839 32.8324C95.5274 32.5071 95.077 32.2283 94.7886 31.9096C94.5057 31.5979 94.189 31.3604 93.9026 31.075C93.5218 30.6953 93.0972 30.1517 93.0771 29.663C93.0413 28.7886 92.9883 27.9117 93.1961 26.9954C93.5546 25.4135 94.3831 24.2158 95.4805 23.123C96.8733 21.7358 98.2615 20.344 99.7229 18.8826C99.1682 18.405 99.14 17.5034 98.2615 17.3279C97.8924 16.6103 97.5248 15.8927 97.1557 15.1751C96.8153 14.513 96.8763 13.7985 96.8798 13.0909C96.8829 12.5872 96.8808 12.0834 96.8808 11.5796C97.3443 10.9881 97.8077 10.3966 98.2636 9.81567H100.554C100.187 10.4425 99.8732 10.9785 99.5651 11.505C100.412 12.1202 100.723 10.7874 101.468 11.1939C101.932 11.8298 101.068 12.1293 100.794 12.7445C101.323 12.6179 101.63 12.5438 102.005 12.4535C102.228 13.1071 102.117 13.6789 101.765 14.2931C101.953 14.3663 102.101 14.4238 102.324 14.51C102.482 14.6804 102.153 14.7051 102.097 14.9563C102.317 15.2941 102.586 15.7056 102.919 16.2144C105.188 13.8332 108.081 12.2372 109.851 9.51764H111.231C111.124 9.97149 111.031 10.3679 110.904 10.9099C111.288 10.7748 111.583 10.6709 111.987 10.5282V11.5953C112.208 11.6533 112.332 11.6855 112.456 11.7183C112.491 11.7955 112.545 11.8706 112.555 11.9508C112.571 12.0859 112.537 12.2291 112.563 12.3618C112.843 13.7899 112.132 14.923 111.385 15.9931C110.579 17.1509 109.642 18.2184 108.695 19.409C109.37 20.2204 110.451 20.6148 111.402 21.3722C111.42 21.4973 111.448 21.708 111.482 21.9506C111.734 22.2658 112.142 22.5709 112.257 22.9622C112.51 23.82 113.137 24.6187 112.711 25.7261C112.607 25.7735 112.378 25.886 112.144 25.9858C111.91 26.0852 111.671 26.1709 111.406 26.2743C111.041 25.9041 110.219 26.0216 110.329 25.301C109.49 25.0585 108.751 24.8447 108.035 24.6374C107.871 24.3525 107.722 24.0943 107.554 23.8023H106.035C105.997 23.6384 105.967 23.5144 105.931 23.3611C105.369 22.9289 104.897 23.4377 104.569 23.5255C104.12 24.0459 103.777 24.4443 103.397 24.8835C103.288 24.8008 103.201 24.7342 103.05 24.6197C102.887 24.8492 102.712 25.0963 102.499 25.3973C102.471 25.3605 102.54 25.4498 102.642 25.5819C102.005 25.7418 101.949 26.3822 101.669 26.9092C101.449 26.7735 101.304 26.6843 101.082 26.5476C101.044 26.7846 101.007 27.0166 100.963 27.2909C100.868 27.3166 100.745 27.3499 100.524 27.4099C100.465 27.9671 100.386 28.6459 99.5596 28.4608C99.2822 28.8204 98.8173 29.1547 98.849 29.4331C98.9438 30.2697 98.2434 30.6696 98.0523 31.3236C97.962 32.1501 97.9746 32.1496 98.2313 32.7018C97.6327 33.1788 96.957 33.5001 96.1809 33.6983C96.0795 33.5702 95.9661 33.428 95.8173 33.2399Z" fill="#26262F"/>
<path fill-rule="evenodd" clip-rule="evenodd" d="M15.3898 17.7018C15.0474 17.7442 14.8411 17.7699 14.5809 17.8022C14.7393 17.9777 14.8295 18.077 14.9738 18.2369C14.6324 18.8717 13.9854 19.2525 13.5467 19.8077L13.7615 20.0225C13.412 20.2968 13.062 20.5712 12.7645 20.8046C12.6001 21.2378 12.9511 21.7265 12.3727 21.9947C12.885 22.3381 13.3535 22.6447 13.8139 22.9624C15.2577 23.9599 16.8018 24.8157 17.9919 26.1591C18.6737 26.9281 19.3156 27.6714 19.3277 28.7758C19.3297 28.9618 19.5188 29.1454 19.6696 29.4182C19.2546 29.6809 18.8658 29.9265 18.3786 30.2346C15.6339 28.6265 12.7963 27.1933 10.1937 25.093C10.0071 25.1994 9.59968 25.2892 9.52454 25.4985C9.22652 26.3275 8.64256 26.9094 8.04802 27.503C7.9754 27.5756 8.00263 27.7475 7.98297 27.8746C7.72831 27.9028 7.51197 27.926 7.18167 27.9624C7.24521 28.1797 7.29917 28.3643 7.39347 28.6875C6.86398 29.1308 6.46862 29.7904 6.26036 30.6093C6.13933 31.0848 5.68346 31.4746 5.275 32.049V35.0374C5.01479 35.054 4.79795 35.0676 4.55237 35.0833C4.49942 35.232 4.44294 35.3914 4.37537 35.5825H3.42732C3.27907 35.1528 3.12728 34.7121 2.95179 34.2043C2.68805 34.3203 2.42482 34.4358 2.11116 34.5734C2.04661 34.3737 1.99568 34.2174 1.94475 34.0611C1.86709 34.0288 1.78136 33.9572 1.71127 33.9703C1.12933 34.0808 0.730952 33.5886 0.659345 33.2754C0.367368 32.0006 -0.45763 30.7399 0.33459 29.3713C0.349214 28.0158 1.19085 26.9815 1.6679 25.8025C1.82372 25.4178 2.4934 25.4853 2.31186 24.8207C2.23723 24.5474 2.73344 24.1142 2.97751 23.7587C3.19889 23.4365 3.40715 23.1021 3.66181 22.8081C3.96085 22.4627 4.32494 22.1732 4.62145 21.8263C4.86804 21.5368 5.05816 21.1995 5.29971 20.8445C3.62853 19.5893 2.60636 17.8062 1.43492 16.1436C1.05924 14.535 0.410232 12.9727 0.663379 11.0892C1.05016 10.645 1.54486 10.0761 2.07687 9.46545C2.66586 9.58648 3.32798 9.22138 3.86605 9.83509C3.51356 10.3101 3.16359 10.7816 2.81009 11.2582C2.90741 11.361 2.99768 11.4579 3.08694 11.5527C3.83327 11.707 4.10659 10.6208 4.8862 10.8724C5.00218 11.0973 5.11766 11.3227 5.23869 11.5567C4.99865 11.7105 4.72382 11.887 4.43537 12.0716C4.61137 12.2481 4.74097 12.3777 4.87057 12.5073C5.25987 12.1043 5.63808 12.0993 6.09546 12.6505C6.05411 12.9576 6.29212 13.4013 5.83273 13.7589C6.02334 13.8507 6.20993 13.9404 6.47669 14.068C6.25733 14.363 6.06268 14.6242 5.86349 14.892C6.04906 14.958 6.20841 15.014 6.54174 15.1325C6.23514 15.2152 6.08991 15.2541 5.83575 15.3226C5.86248 15.546 5.80903 15.8516 5.9361 16.0226C6.46257 16.7306 7.0435 17.3977 7.66628 18.1547C8.00919 17.8471 8.27242 17.6181 8.52708 17.3806C10.0318 15.9777 11.291 14.2954 13.1574 13.302C13.1473 12.7851 13.6884 12.8214 13.9213 12.5446C14.1851 12.2314 14.4781 11.943 14.6672 11.7408H15.5915C15.1725 12.3575 14.4584 12.7059 14.6914 13.5945C15.2884 13.2385 15.8729 12.89 16.5849 12.4659C16.5214 12.8729 16.472 13.1865 16.4165 13.543C16.6656 13.6686 17.0358 13.8567 17.4331 14.0574C17.3308 14.2697 17.245 14.4467 17.1452 14.654C17.2889 14.6842 17.414 14.7099 17.5446 14.7372C17.5582 14.7906 17.6106 14.8819 17.5854 14.9157C17.2506 15.3675 16.8023 15.7669 16.589 16.2677C16.3217 16.896 15.7322 17.1789 15.3898 17.7018Z" fill="#26262F"/>
<path fill-rule="evenodd" clip-rule="evenodd" d="M40.4933 31.7393C41.5891 30.3949 42.5144 29.2774 43.4206 28.1443C44.2789 27.0712 45.0126 25.9124 45.6798 24.7248C45.5946 24.6194 45.5119 24.5176 45.3702 24.3431C45.6031 24.0788 45.8336 23.8166 46.0782 23.5388H46.9844C47.3232 23.8776 47.596 24.3612 47.9838 24.4848C48.4574 24.6351 48.5244 25.0138 48.7155 25.2967C49.3782 26.2765 49.8391 27.2709 49.3298 28.5477C49.0166 29.3329 48.6994 30.1186 48.3736 30.9002C48.2758 31.1357 48.2042 31.3823 48.0796 31.7408L47.3853 32.4357V33.3011C46.8416 34.2859 46.3893 35.1069 45.8941 36.0045C46.5784 36.4694 47.2088 36.9177 47.8583 37.3363C49.1452 38.1658 50.2097 39.1961 50.8456 40.6116C50.9823 40.9162 51.0448 41.2545 51.187 41.7301C51.1381 41.8385 51.0186 42.1052 50.8865 42.3977C50.6031 42.5298 50.297 42.6726 50.0579 42.7835C49.4114 42.5601 48.8396 42.3932 48.293 42.1658C47.7458 41.9388 47.2239 41.6514 46.6909 41.3907C46.6001 40.5944 45.6924 40.9162 45.3187 40.3746C45.0121 39.9298 44.3303 39.7447 43.7323 39.3963C41.9401 41.2248 40.3617 43.2222 38.9134 45.3261C38.802 45.4874 38.8378 45.7502 38.8055 45.9655C38.1741 46.4516 37.5498 46.3775 36.9235 45.9357V45.4985C36.1096 45.0109 35.3466 44.554 34.5121 44.0538C34.1127 43.5858 34.3159 42.8506 34.0557 42.2817C33.7657 41.6484 34.0108 41.0352 33.9009 40.5692C34.8106 38.5415 35.8872 36.7655 37.4288 35.233V34.297C36.5377 33.6762 35.984 32.7085 35.4233 31.7595C35.2352 31.4413 35.2059 31.0258 35.1197 30.6516C34.9447 29.8901 34.683 29.1534 34.7062 28.3445C34.7511 26.7974 35.6295 25.6935 37.1066 25.1383C38.038 24.7884 38.9426 24.9643 39.9441 24.866C39.4051 25.982 38.1136 25.8867 37.3587 26.8221C38.6608 26.7646 39.454 25.5382 40.7817 25.7722C40.7303 26.0849 40.6789 26.398 40.6244 26.7278C40.868 26.8135 41.2255 26.9401 41.5694 27.0621V28.8085C41.2154 29.4262 40.8266 30.0424 40.5094 30.694C40.4071 30.9032 40.4933 31.2048 40.4933 31.7393Z" fill="#26262F"/>
<path fill-rule="evenodd" clip-rule="evenodd" d="M63.7336 14.62C63.2188 15.2655 62.7488 15.8555 62.2289 16.507V18.2715C61.7453 18.4656 61.2748 18.6552 60.7433 18.8686C60.1149 18.2584 59.8603 17.449 59.6591 16.684C59.3898 16.7844 59.1518 16.8726 58.7983 17.0037C58.5209 16.6049 58.1836 16.2524 58.0015 15.8328C57.4569 14.5756 57.5003 13.2333 57.5598 11.97C57.7882 11.4496 57.9919 10.9847 58.2461 10.4043C57.8659 10.3473 57.529 10.4002 57.3893 10.259C56.5008 9.3609 55.6239 8.44715 54.8094 7.48247C54.3707 6.96206 53.9078 6.37356 53.7328 5.73969C53.4776 4.81182 53.4716 3.81536 53.3511 2.77907C53.7696 2.19058 54.11 1.50123 54.6415 1.0262C55.1302 0.5895 55.8251 0.383755 56.5785 0C56.7539 0.190113 56.9249 0.374174 57.0979 0.561261C56.997 0.658082 55.6541 1.95155 55.6541 1.95155C55.7509 2.04888 55.8483 2.14621 55.9915 2.28892C56.6062 1.84061 57.2184 1.25414 58.2179 1.64092C57.9698 1.9808 57.7766 2.24504 57.4372 2.70948C57.8961 2.53046 58.1523 2.43112 58.5073 2.29295C58.6747 2.54509 58.8543 2.81589 59.0721 3.14467C58.6929 3.5244 58.3949 3.82242 58.0353 4.18248C58.2673 4.22988 58.3923 4.2561 58.6001 4.29897C58.2885 4.82442 58.4644 5.55109 57.6611 5.81936C58.4584 6.80018 59.3459 7.34077 60.2466 7.93884C63.2783 5.42502 66.2439 2.96566 69.2494 0.473517H70.5762C70.3437 0.939469 70.1591 1.31112 69.9721 1.68731C70.3704 1.99139 70.6856 1.65 71.0386 1.4967C72.0583 2.44827 72.2983 3.63635 72.0885 4.96159C71.6649 5.5052 71.2297 6.06343 70.7855 6.63327C70.8142 6.65949 70.8803 6.72101 71.0618 6.88894C70.8172 6.9202 70.5817 6.95046 70.3457 6.98071C70.438 7.07955 70.5303 7.17889 70.6226 7.27824H70.1107C69.1682 9.05178 67.5752 10.2585 66.4088 11.8742C68.0074 12.7648 69.7961 13.4274 71.4874 14.4354C71.5389 14.6896 71.5968 14.9781 71.6649 15.3189C71.8727 15.0991 72.0285 14.9342 72.1788 14.7753C72.8596 14.8671 72.8454 15.6497 73.4168 15.9362C73.917 16.1873 74.209 16.854 74.5983 17.3431V18.976C74.4662 19.1081 74.3366 19.2377 74.155 19.4192C72.739 19.2679 71.5681 18.4611 70.2787 17.8086C70.2524 17.8323 70.1566 17.919 70.1148 17.9568C69.2126 17.7339 68.6746 16.7657 67.6337 16.9104C67.1486 16.2867 66.3508 16.2382 65.7286 15.8706C65.0997 15.4995 64.4906 15.0966 63.7336 14.62Z" fill="#26262F"/>
<path fill-rule="evenodd" clip-rule="evenodd" d="M103.783 36.592C104.067 36.7524 104.291 36.8785 104.618 37.0635C104.544 37.5113 104.468 37.9627 104.376 38.5184C104.606 38.9188 104.8 39.5284 105.499 39.7745C105.812 39.3378 106.004 38.8381 106.607 38.594C107.03 38.4221 107.279 37.8194 107.603 37.4074C107.959 36.9541 108.455 36.6445 108.735 36.0923C108.971 35.6279 109.479 35.3102 109.799 34.8775C110.129 34.4302 110.379 33.9234 110.664 33.4433H112.214C112.296 33.878 112.43 34.3077 111.918 34.7565C112.36 34.7766 112.702 34.7923 113.015 34.8064C113.154 35.4478 113.28 36.0288 113.405 36.5966C113.182 36.6838 113.024 36.7453 112.838 36.8179C112.857 36.944 112.854 37.0756 112.899 37.1876C113.282 38.1341 113.22 38.4589 112.483 39.1896C112.176 39.4941 112.047 39.9682 112.172 40.2642C112.369 40.7291 111.778 40.5501 112.057 40.9792C111.762 40.7357 111.669 40.659 111.508 40.5269V41.2929C111.218 41.3489 110.967 41.3968 110.668 41.4538V42.2056C110.316 42.5723 110.068 42.8315 109.861 43.0473C110.341 43.5168 110.783 43.9494 111.151 44.31V45.3458C111.447 45.6423 111.758 45.9524 112.075 46.2711C111.976 46.4466 111.913 46.5571 111.803 46.7512C111.947 47.0437 112.124 47.4037 112.353 47.8682C112.087 48.4219 111.794 49.0336 111.516 49.6145H110.37C109.034 48.8505 107.74 48.1087 106.449 47.3694C106.22 47.7229 106.038 48.0043 105.884 48.2429C105.646 48.1269 105.462 48.0371 105.146 47.8833V49.1632C104.728 49.0073 104.435 48.8984 103.888 48.6947C104.114 49.0033 104.176 49.0875 104.295 49.2499C104.043 49.4869 103.776 49.7375 103.354 50.1339C103.269 49.6221 103.216 49.3013 103.158 48.9483C103.351 48.8818 103.508 48.8278 103.706 48.7587C103.726 48.6554 103.75 48.5303 103.778 48.3775C103.604 48.317 103.445 48.2625 103.284 48.2071C103.343 47.964 103.403 47.7189 103.505 47.3034C103.25 47.5369 103.152 47.6271 103.094 47.6806C102.508 47.5707 101.954 47.4673 101.371 47.3584C101.281 47.1859 101.165 46.961 101.027 46.6978C101.131 46.2953 101.249 45.8385 101.368 45.3725C101.637 45.4169 101.979 45.4739 102.32 45.5303C102.334 45.4799 102.348 45.4295 102.362 45.3786C102.006 45.1995 101.65 45.0205 101.336 44.8627C101.52 44.4825 101.703 44.1037 101.893 43.7094C100.989 42.1729 100.003 40.7226 99.4456 39.0534C99.1113 37.9037 99.5071 36.7675 99.6725 35.6359C99.8011 34.756 100.529 34.1337 101.325 33.6884C101.439 33.6249 101.546 33.5517 101.727 33.4388H103.095C103.311 33.6546 103.505 33.8493 103.642 33.9859C103.372 34.2552 103.099 34.5285 102.936 34.6904V35.5366C103.239 35.4579 103.53 35.3828 103.863 35.2965C104.038 35.4594 104.197 35.6092 104.419 35.8165C104.186 36.1009 103.994 36.3354 103.783 36.592Z" fill="#26262F"/>
<path fill-rule="evenodd" clip-rule="evenodd" d="M21.0757 50.717C21.231 50.8723 21.3606 51.0019 21.5442 51.1854C20.7015 51.9061 19.8634 52.6221 19.0258 53.3387C19.0445 53.3871 19.0637 53.4355 19.0828 53.4834C19.2608 53.4315 19.4782 53.427 19.6078 53.318C19.8498 53.1153 20.0404 52.8526 20.3728 52.787C20.9602 52.4557 21.5477 52.1239 22.1191 51.8012C22.6173 52.2041 22.2537 52.5223 22.0394 53.0109C22.3657 52.8874 22.577 52.8072 22.8044 52.7205C22.9037 52.8198 23.0333 52.9494 23.1634 53.0795C23.1639 53.6287 23.1639 54.1783 23.1639 54.7345C23.0036 54.8909 22.8402 55.0512 22.6672 55.2197C22.6924 55.2832 22.699 55.3709 22.7459 55.4052C23.0585 55.6397 23.3707 55.8772 23.7005 56.086C24.055 56.3099 24.5512 56.3745 24.5648 56.9478C24.5663 57.0139 24.6783 57.0885 24.7519 57.1405C25.0348 57.3396 25.3661 57.4904 25.5966 57.737C25.8265 57.9826 25.9571 58.321 26.1896 58.7183C26.1896 58.9508 26.1896 59.3174 26.1891 59.6835C25.9617 59.9105 25.7352 60.1374 25.5456 60.327C23.8114 59.7072 22.0974 59.095 20.3839 58.4828C20.0031 58.6861 19.5931 58.9044 19.1827 59.1228C19.1655 59.095 19.1484 59.0673 19.1312 59.0396C18.7747 59.3956 18.4182 59.7521 17.9628 60.2075C17.9563 60.3159 17.9432 60.5287 17.9265 60.8C17.2044 61.4944 16.4485 62.2221 15.8388 62.809C15.5327 63.7586 15.688 64.7339 14.4228 64.9341C14.1611 64.5155 13.2211 64.4484 13.4354 63.4727C13.1752 63.3975 12.8555 63.3042 12.507 63.2034C12.4284 63.2563 12.2867 63.3511 12.1762 63.4248C11.8222 63.0506 11.5131 62.7228 11.0638 62.2473C10.9634 61.3895 10.8349 60.2917 10.6997 59.1364C11.8419 57.9014 12.9674 56.6846 14.1616 55.3931C13.6946 55.1007 13.213 54.8561 12.8005 54.5258C12.3739 54.1839 12.0144 53.7583 11.6145 53.3584C11.7249 53.0019 11.8374 52.6383 11.9584 52.2454C11.7345 52.1688 11.5746 52.1138 11.3759 52.0452V51.1164C11.4526 51.0392 11.5499 50.9424 11.6624 50.8294C12.0557 50.7513 12.4687 50.6691 12.979 50.5672C14.3376 51.3297 15.8232 52.1632 17.2684 52.9736C18.7177 52.4224 19.6572 51.1512 21.0757 50.717Z" fill="#26262F"/>
</svg>
