<svg width="122" height="117" viewBox="0 0 122 117" fill="none" xmlns="http://www.w3.org/2000/svg">
<path fill-rule="evenodd" clip-rule="evenodd" d="M121.415 60.8683C121.369 60.9959 121.255 61.3161 121.11 61.719C121.238 61.781 121.376 61.8471 121.57 61.9399C121.667 62.2959 122.209 62.6726 121.88 63.1542C121.583 63.5874 122.366 64.0452 121.768 64.3967C121.87 65.3054 121.23 65.961 120.808 66.5959C120.426 67.1718 120.333 67.8909 119.754 68.3911C119.251 68.8263 118.968 69.5167 118.587 70.0966C118.255 70.1117 117.947 70.1248 117.52 70.144C117.597 70.3901 117.655 70.5746 117.746 70.8656C117.631 70.9947 117.443 71.208 117.238 71.439C117.364 71.8273 117.483 72.1924 117.623 72.621C117.424 72.8474 117.227 73.0723 117.011 73.3179C117.181 73.3784 117.34 73.4349 117.61 73.5312C117.301 73.7506 117.047 73.9311 116.779 74.1207C116.831 74.1817 116.912 74.276 117.039 74.4238C116.128 74.7627 115.317 73.9467 114.313 74.3411C113.693 74.7884 113.233 75.7011 112.311 76.0385C111.956 76.1691 112.26 76.8206 111.651 76.744C111.434 76.7167 111.594 77.4146 111.086 77.279C110.896 77.9114 110.332 78.1655 109.887 78.5639C109.517 78.8937 109.18 79.3238 108.882 79.754C108.634 80.112 108.37 80.459 108.107 80.8069C107.869 81.1221 107.59 81.4121 107.395 81.7509C107.228 82.0399 107.243 82.5336 107.018 82.6642C106.715 82.8397 106.508 83.0293 106.444 83.4372C106.146 83.2597 105.965 83.1518 105.782 83.0429C105.214 83.3207 104.644 83.585 104.079 82.8901V81.4463C102.991 80.8337 101.854 80.2986 101.344 78.9134C101.384 78.4565 101.162 77.809 101.602 77.2745C100.964 75.9996 101.518 74.9205 102.133 73.8575C102.872 72.5781 103.843 71.4859 104.981 70.4798C104.312 69.4758 103.613 68.5404 103.042 67.5323C102.65 66.8389 102.216 66.0825 102.195 65.2893C102.172 64.4673 101.914 63.6095 102.404 62.776C102.623 62.4028 102.413 61.8622 102.658 61.3706C102.805 61.075 102.897 60.7468 103.124 60.4634C103.246 60.3106 103.241 60.0549 103.341 59.6495C103.568 59.4392 104.136 59.1558 104.254 58.7443C104.426 58.1462 105.191 58.3741 105.18 57.6747C105.378 57.8245 105.465 57.891 105.602 57.9944C105.919 57.9006 106.277 57.7947 106.65 57.6848C106.787 57.943 106.901 58.1593 107.04 58.4225C106.766 58.9183 106.467 59.4598 106.123 60.0821C106.803 60.0151 107.328 59.9626 107.776 59.9182C107.959 60.1013 108.056 60.1981 108.164 60.306C107.981 60.6661 107.796 61.0302 107.552 61.5107C107.983 61.5551 108.318 61.5894 108.733 61.6318C108.63 62.1179 108.528 62.6055 108.428 63.0851C108.253 63.2414 108.063 63.4109 107.868 63.5853C107.991 63.7089 108.042 63.775 108.053 63.7684C108.233 63.6691 108.408 63.5606 108.621 63.4315C108.693 63.6242 108.738 63.7427 108.796 63.896C108.407 64.0932 108.037 64.2807 107.615 64.4941C107.81 64.5596 107.966 64.6115 108.253 64.7074C107.925 65.0356 107.634 65.3271 107.255 65.7078C107.739 66.0896 108.167 66.4285 108.627 66.7915C109.303 66.9201 109.847 66.6347 110.379 66.1748C111.61 65.1123 112.963 64.1849 114.176 63.1169C115.417 62.0231 116.738 60.9515 117.622 59.4861C117.829 59.1432 118.192 58.8951 118.504 58.5834H119.951C120.03 58.6838 120.167 58.8567 120.308 59.0342C120.149 59.4856 119.987 59.9505 119.775 60.5546C120.214 60.4341 120.57 60.3363 121.033 60.2087C121.107 60.3348 121.22 60.5309 121.415 60.8683Z" fill="#3734A9"/>
<path fill-rule="evenodd" clip-rule="evenodd" d="M34.1401 89.8317C33.6938 89.9699 33.3272 90.0839 32.8532 90.2306C32.9686 89.983 33.0448 89.8196 33.1411 89.6124C32.8254 89.1368 32.4684 88.7112 31.8154 88.8055C31.7649 88.6129 31.7327 88.4888 31.6873 88.3164H30.5511C30.4377 88.2029 30.3393 88.149 30.3136 88.0713C30.1396 87.5468 30.1028 86.9236 29.7872 86.5121C29.3807 85.9831 29.5829 85.4642 29.5643 84.9518C29.5486 84.5358 29.7166 84.1097 29.8189 83.6922C30.186 82.1995 30.7539 80.78 31.477 79.43C31.9223 78.6 32.421 77.7916 32.9676 77.0246C33.5017 76.2752 34.1275 75.5909 34.7311 74.8552C34.5672 74.7503 34.3877 74.6283 34.2011 74.5178C32.3973 73.4508 30.8174 72.1074 29.3525 70.6177C28.6611 69.9148 28.6571 68.9713 28.4554 68.1029C28.3742 67.7555 28.4422 67.3727 28.4422 67.0061C28.8119 66.3011 29.5567 66.2416 30.2793 65.9542C30.5229 66.3828 30.773 66.8236 31.0554 67.3193C31.1048 67.283 31.1906 67.2199 31.3444 67.1065C31.4387 67.2003 31.6046 67.2905 31.651 67.4232C31.9384 68.2406 32.6061 68.6566 33.3156 69.0106C34.7593 69.7322 36.2162 70.4256 37.7663 71.1785C38.1289 70.7953 38.4915 70.2073 39.018 69.9133C39.5031 69.642 39.5283 68.8659 40.2847 68.9405C40.1768 68.8079 40.1016 68.7156 39.9897 68.5785C40.2217 68.4161 40.4567 68.2517 40.7839 68.0227C40.8873 67.7948 41.0451 67.4474 41.1995 67.107C41.4334 67.0934 41.6508 67.0807 41.9639 67.0626C41.8308 66.8911 41.7612 66.8019 41.6533 66.6627C42.2373 66.5775 42.2761 65.9728 42.6437 65.6481C43.032 65.3047 43.3068 64.8332 43.675 64.3612C43.7566 64.4212 43.8419 64.4837 44.0042 64.6032C44.0759 64.4348 44.1429 64.276 44.2271 64.0768C44.3265 64.1569 44.4183 64.2306 44.5837 64.3647C44.7637 63.399 45.3113 62.6244 45.8933 61.928C46.4929 61.2099 47.0319 60.3855 48.0133 59.9049C48.1363 60.0062 48.3012 60.1419 48.4878 60.2952C48.1 61.04 47.7243 61.7783 46.9296 62.1671V63.2669C47.1177 63.221 47.3088 63.2296 47.3486 63.156C47.508 62.8589 47.6204 62.5367 47.6835 62.3849C48.337 61.8463 48.871 61.4066 49.5447 60.8519C49.5831 61.3658 49.6073 61.7011 49.6315 62.0228C49.4262 62.1071 49.2699 62.1711 49.1055 62.2387C49.1479 62.2977 49.2008 62.4116 49.2291 62.4056C49.5629 62.337 49.8932 62.2503 50.2991 62.1499C50.4141 62.3526 50.5543 62.5992 50.6955 62.8473C50.6199 62.9316 50.5296 63.0314 50.4323 63.1393C50.4898 63.5377 50.9688 63.8892 50.5982 64.3455C50.4903 64.2482 50.3945 64.1615 50.2966 64.0722C50.2512 64.1574 50.163 64.2477 50.1811 64.3047C50.2316 64.4661 50.3259 64.6138 50.4318 64.8226C50.3561 65.521 49.7979 65.985 49.28 66.4565C48.7898 66.9027 48.2508 67.2946 47.6204 67.8004C47.8796 67.9491 48.105 68.0792 48.3587 68.2255C48.2003 68.5295 48.1045 68.7131 48.0037 68.9057C48.0622 68.9708 48.1499 69.0666 48.2861 69.2169C47.987 69.2648 47.7349 69.3056 47.3733 69.3646C47.4717 69.6152 47.5559 69.8286 47.6532 70.0762H46.7374C46.5675 70.4246 46.4192 70.7287 46.278 71.0181C46.4091 71.1593 46.5009 71.2582 46.633 71.4004C46.3522 71.4523 46.1005 71.4992 45.7344 71.5678C45.8232 71.8018 45.9044 72.0126 45.9997 72.2632C45.7647 72.298 45.5115 72.3353 45.1817 72.3837C45.2786 72.6449 45.3572 72.8567 45.4873 73.2077C45.1293 73.0685 44.8686 72.9672 44.5539 72.8451C44.4057 73.1275 44.2544 73.416 44.1071 73.6964C44.1596 73.7962 44.1802 73.9056 44.2423 73.9394C44.3517 73.9989 44.4994 73.9878 44.6079 74.0483C45.0289 74.2833 45.1273 74.828 45.5413 75.0614C45.9876 75.3136 46.1817 75.7463 46.4661 76.1315C46.7223 76.4785 46.9124 76.7709 46.8837 77.2102C46.8736 77.3604 47.0077 77.5198 47.0909 77.7079C47.0183 77.8314 46.9144 78.0074 46.7727 78.2485C46.4011 78.2913 46.1308 78.7891 45.4525 78.5263C44.268 78.0669 43.035 77.6554 41.7486 77.5006C41.677 77.4921 41.618 77.3781 41.501 77.2611C41.1248 77.6852 40.7512 78.1063 40.2822 78.6353C40.2761 78.6852 40.2509 78.9015 40.2232 79.135C39.9599 79.1763 39.7078 79.2162 39.316 79.2777C39.5747 79.6408 39.7678 79.9121 40.0558 80.3165C39.7305 80.2212 39.5137 80.1582 39.2383 80.0775C39.1813 80.1451 39.0659 80.2817 38.9403 80.43C39.0996 80.8702 38.9716 81.1395 38.4557 81.4325C38.3014 81.9872 38.1531 82.5202 38.0296 82.965C37.7966 83.0507 37.6665 83.0986 37.4986 83.1606L37.7996 83.4617C37.3886 83.7764 36.9171 84.031 36.5984 84.4133C36.3105 84.7577 36.1905 85.2418 35.9666 85.7299C35.9883 85.7632 36.0785 85.8984 36.2217 86.1127C35.9187 86.4248 35.6211 86.7314 35.3347 87.0259C35.4462 87.1651 35.5284 87.2675 35.6706 87.445C35.4683 87.6759 35.2697 87.9029 35.0483 88.1555V88.9573C34.7235 89.27 34.3942 89.5872 34.1401 89.8317Z" fill="#3734A9"/>
<path fill-rule="evenodd" clip-rule="evenodd" d="M67.9606 95.3123C68.596 96.0808 68.5965 96.0823 69.3675 95.6562C69.3892 95.9023 69.3816 96.1166 69.4346 96.3143C69.4724 96.4545 69.5914 96.573 69.6681 96.692C69.5702 96.7903 69.5052 96.8549 69.4225 96.9376C69.6146 97.0274 69.7982 97.1136 70.0987 97.2543C69.7861 97.6996 69.4911 98.1191 69.1966 98.5392C69.5763 99.222 68.773 99.343 68.6575 99.7086C68.4795 100.273 67.7927 100.395 67.773 100.999C67.7503 101.703 67.0282 101.789 66.7145 102.199C66.4422 102.556 65.9581 102.789 65.8956 103.244C66.004 103.429 66.0897 103.576 66.2304 103.817C65.8234 104.047 65.4689 104.249 65.1134 104.45L64.2557 104.855C63.9949 105.163 63.7342 105.47 63.3858 105.881V106.151C62.5078 106.796 61.6879 107.399 60.7358 108.099C61.0081 108.238 61.173 108.322 61.4463 108.462C61.0681 108.991 60.6854 109.526 60.2739 110.102C61.3303 110.462 62.3243 110.801 63.3495 111.151C63.2481 111.355 63.1624 111.527 63.0464 111.76C63.5033 111.923 63.9304 112.075 64.418 112.249V112.847C64.7246 113.129 64.9934 113.376 65.2718 113.632C65.2889 113.955 65.3045 114.264 65.3202 114.559L65.8189 115.057L64.5537 116.11C64.2556 116.442 63.945 116.38 63.6112 116.159C63.5098 116.092 63.3676 116.053 63.2446 116.056C61.8245 116.087 60.5411 115.546 59.2492 115.074C58.2961 114.726 57.3788 114.281 56.3904 113.855C56.1206 114.124 55.7006 114.328 55.6466 114.882C55.0758 115.017 54.4903 115.157 53.9427 115.286C53.6603 115 53.4349 114.772 53.2089 114.543C53.2947 114.449 53.3834 114.351 53.5145 114.206C53.3784 113.923 53.2316 113.618 53.1439 113.436C52.7188 113.502 52.3426 113.56 51.9755 113.617C51.7723 113.215 51.5897 112.853 51.4026 112.482C51.3114 112.573 51.2468 112.638 51.2231 112.661C50.919 112.352 50.6124 112.041 50.1888 111.612C50.3204 110.657 49.7098 109.562 49.8737 108.377C49.9085 108.129 49.7183 107.77 49.5181 107.582C48.7068 106.821 48.672 105.721 48.2907 104.784C48.145 104.427 47.9897 103.973 47.9771 103.541C47.9559 102.854 47.8757 102.149 47.9932 101.483C48.1788 100.428 48.3785 99.3037 49.6064 98.8886C50.0123 98.7515 50.4591 98.7364 50.9942 98.6476V100.792C51.4596 100.493 51.7713 100.292 52.2362 99.9925C52.3007 100.182 52.3784 100.408 52.4551 100.634C52.5241 100.582 52.5932 100.529 52.6623 100.477V101.742C52.8988 101.622 53.0698 101.535 53.2311 101.453C53.8146 101.963 53.7995 102.617 53.7188 103.289C53.9139 103.358 54.0728 103.414 54.3274 103.504C54.219 103.799 54.1106 104.091 53.9795 104.445C54.1383 104.416 54.218 104.425 54.2624 104.389C54.3693 104.304 54.4429 104.153 54.5599 104.108C55.7344 103.662 56.3254 102.414 57.5044 101.979C57.7414 101.126 58.6415 100.944 59.1675 100.368C59.7146 99.7701 60.4867 99.3808 61.1468 98.8821C61.7857 98.399 62.1458 97.5851 62.9793 97.3294C63.527 96.3325 64.3152 95.5771 65.296 95.0133C65.2617 94.338 66.1906 94.2543 66.1689 93.5423H67.4089C67.4977 93.6305 67.6273 93.7601 67.7568 93.8897C67.1633 94.1853 66.9465 94.7586 66.5668 95.3648C67.3882 95.5347 67.8612 94.5347 68.6353 94.9961C68.4114 95.101 68.2283 95.1867 67.9606 95.3123Z" fill="#3734A9"/>
<path fill-rule="evenodd" clip-rule="evenodd" d="M64.7707 80.7767C64.7066 80.1337 65.6113 80.0631 65.1827 79.464C65.0732 79.5619 64.9759 79.6481 64.8786 79.7343C64.8463 79.7015 64.7903 79.6728 64.7848 79.6365C64.6829 78.9628 64.7238 78.3239 65.2018 77.7747C65.7278 77.1716 66.2492 76.5634 66.7535 75.9422C66.9128 75.746 67.0112 75.5004 67.168 75.2241C66.9189 74.5751 66.5775 73.9024 66.281 73.2337C65.9628 72.5156 65.9698 71.737 65.6239 71.0265C65.4399 70.6493 65.9199 69.9871 65.8075 69.5252C65.6809 69.0083 65.3758 68.5686 65.8216 68.0815C65.8307 66.7189 66.757 65.8697 67.5674 64.9237H69.8583C69.9925 65.0508 70.1251 65.1768 70.3399 65.3801C69.9915 65.8243 69.6425 66.2686 69.2567 66.7603C69.2996 66.8521 69.403 67.0714 69.5411 67.3654C69.6702 67.3654 69.9173 67.4395 70.0056 67.3523C70.3883 66.9766 70.8306 67.1284 71.2335 67.084C71.3823 67.4063 71.5063 67.6755 71.6445 67.9746C71.4377 68.2328 71.2244 68.4995 70.9007 68.9035C71.3903 68.966 71.7186 69.0078 72.1503 69.0628V70.381C73.0792 70.4112 73.181 69.2862 73.9632 69.2907C74.3182 68.7502 74.8361 68.374 75.3025 67.9428C75.8406 67.4461 76.3524 66.9196 76.8597 66.3906C77.3267 65.903 77.8007 65.4174 78.2203 64.8909C78.6519 64.3483 79.0231 63.7573 79.2727 63.3993C79.841 63.1955 80.1612 63.0806 80.5586 62.9384C80.6887 63.1234 80.902 63.3115 80.9565 63.5379C80.9983 63.7119 80.8597 63.9434 80.7664 64.1315C80.66 64.3453 80.5142 64.5389 80.5157 64.9151C80.9166 64.7462 81.3175 64.5768 81.7588 64.3907C81.9943 64.8496 82.2464 65.3407 82.6287 66.0856C82.6287 66.0699 82.6065 66.3407 82.6362 66.6055C82.6594 66.8112 82.7467 67.0099 82.8238 67.2736C82.7694 67.3684 82.6695 67.5439 82.5772 67.7063C82.7159 67.8561 82.8082 67.9554 82.8904 68.0437C82.0936 69.3195 81.3765 70.6402 80.5026 71.8752C79.7689 72.912 79.8718 72.9846 79.3342 73.2781C79.4199 73.3734 79.5067 73.4692 79.5763 73.5463C78.488 74.7657 77.4089 75.9754 76.3136 77.2034V77.6597C77.1739 78.2079 78.0064 78.7379 78.8768 79.2921C78.7508 79.5392 78.6736 79.6905 78.5546 79.9249C78.8839 80.2078 79.1053 80.752 79.7427 80.5513C79.8824 80.8286 79.9963 81.055 80.1083 81.2779C80.0281 81.3899 79.9283 81.5285 79.7916 81.7187C80.1365 82.0641 80.4461 82.3742 80.781 82.7096C80.6534 83.0378 80.545 83.3177 80.4245 83.6279C80.5127 83.7791 80.6186 83.9617 80.7164 84.1296C80.668 84.234 80.6529 84.3419 80.5929 84.3817C80.4577 84.47 80.2591 84.4871 80.1602 84.5991C79.5687 85.2668 79.4628 85.3041 78.719 85.0499C77.7558 84.7206 76.72 84.527 75.8401 84.0464C74.6611 83.4029 73.6016 82.5406 72.3838 81.698C71.8724 82.0762 71.2986 82.5951 70.7459 83.1856C70.2113 83.7569 69.5069 84.2098 68.5275 84.5013C68.7 84.2163 68.7706 84.0999 68.9234 83.8457C68.3097 83.9602 67.7948 84.056 67.2805 84.1518L67.1922 83.9748C67.5018 83.7332 67.811 83.4922 68.1206 83.2512L67.642 82.7726H66.7031C66.578 82.4584 66.4388 82.1064 66.2744 81.6929H65.1348C64.9779 81.2981 64.8372 80.9441 64.7707 80.7767Z" fill="#3734A9"/>
<path fill-rule="evenodd" clip-rule="evenodd" d="M70.7358 53.7917C70.2638 53.9046 69.8477 54.0045 69.2607 54.1452C68.6581 53.6999 67.9375 53.1452 67.1937 52.6248C66.3067 52.004 65.5362 51.2133 64.5236 50.7761C64.2891 50.6747 64.043 50.6016 63.7172 50.4846C63.3224 49.8931 63.2765 48.7948 62.1182 48.9158C61.5942 48.4367 61.5302 47.6047 60.7642 47.524C60.5135 47.0969 60.3552 46.6082 60.0259 46.3031C58.5227 44.9088 57.4349 43.2341 56.4995 41.2135C56.4183 40.5897 56.4178 39.7581 56.2832 38.9241C56.0714 37.6104 56.7713 36.4823 57.909 35.7542C58.2231 35.5535 58.385 35.1122 58.9069 35.1591C59.27 35.1919 59.6532 34.9988 60.1353 34.8803C60.278 35.0073 60.4672 35.1753 60.7057 35.3871C60.3179 36.0381 59.5847 36.4491 59.5292 37.3235C60.392 37.6114 60.7788 36.6528 61.6472 36.5424C61.7531 36.6372 61.9412 36.8046 62.1177 36.9629C61.81 37.4243 61.6028 37.735 61.221 38.3073C61.8146 38.1197 62.2367 38.1167 62.3925 37.9115C62.7863 37.3921 63.4232 37.1838 63.7929 36.6059C64.1373 36.0678 64.7021 35.6669 65.2795 35.2917C66.0959 34.7617 66.7575 33.9998 67.523 33.3836C68.648 32.4779 69.7025 31.4855 70.9556 30.7326C71.4513 30.4356 71.8179 29.9182 72.2294 29.487C72.6036 29.0947 73.1981 28.9232 73.3156 28.3383H75.1653V29.5314C75.1139 29.5828 74.9364 29.7603 74.7226 29.9746C74.9677 29.9308 75.2122 29.896 75.4523 29.8415C75.6963 29.786 75.9364 29.7114 76.3065 29.61C76.25 30.4981 76.2929 31.2842 76.9343 31.8571C76.7992 32.0392 76.722 32.143 76.5667 32.3533C76.7624 32.4612 76.9893 32.5853 77.4114 32.8167C76.9767 32.9358 76.8289 32.9761 76.6272 33.0316C76.7039 33.2071 76.8068 33.371 76.8441 33.549C76.8819 33.7244 76.8526 33.9136 76.8526 34.0936C76.3428 34.7935 75.8325 35.4935 75.2722 36.262C75.1694 36.2736 74.9525 36.2973 74.6338 36.3321C74.7306 36.4652 74.7901 36.5484 74.8683 36.6563C74.7861 36.853 74.6948 37.0713 74.5925 37.3144C73.3822 37.2559 73.3736 38.503 72.6253 38.9886C72.7836 39.1969 72.8623 39.3002 72.8981 39.3476C72.4004 39.8459 71.8981 40.3481 71.3908 40.8549C71.4317 40.8923 71.3666 40.8332 71.3948 40.8585C71.1689 41.0839 70.936 41.3169 70.703 41.5503C70.6273 41.4913 70.5522 41.4328 70.4766 41.3738V42.098C70.3167 41.9664 70.2239 41.8897 70.0156 41.7188C70.0615 42.0274 70.0923 42.2326 70.1352 42.5211C69.7917 42.9658 69.3787 43.5009 68.9315 44.0808C68.7302 43.9335 68.5931 43.8322 68.471 43.7424C67.9758 44.3213 67.468 44.9149 66.9557 45.514C67.1529 45.6123 67.3349 45.7026 67.6002 45.8342C67.3531 46.1473 67.1408 46.4166 66.9416 46.6693C66.9738 46.7807 66.9738 46.8836 67.0248 46.9411C67.8624 47.88 68.8558 48.7196 69.5089 49.7716C70.2446 50.9561 71.1639 52.179 70.7358 53.7917Z" fill="#3734A9"/>
<path fill-rule="evenodd" clip-rule="evenodd" d="M89.8171 33.9089C89.9018 33.8241 89.9668 33.7591 90.0339 33.692C89.9845 33.6285 89.9426 33.5554 89.8836 33.5014C89.5271 33.1761 89.0768 32.8973 88.7883 32.5786C88.5054 32.2669 88.1888 32.0294 87.9023 31.744C87.5216 31.3643 87.097 30.8207 87.0768 30.332C87.041 29.4576 86.9881 28.5807 87.1958 27.6644C87.5544 26.0825 88.3829 24.8848 89.4802 23.792C90.873 22.4048 92.2613 21.013 93.7227 19.5516C93.168 19.074 93.1398 18.1724 92.2613 17.9969C91.8922 17.2793 91.5246 16.5617 91.1554 15.8441C90.815 15.182 90.8761 14.4675 90.8796 13.76C90.8826 13.2562 90.8806 12.7524 90.8806 12.2486C91.344 11.6571 91.8075 11.0656 92.2633 10.4847H94.5543C94.1871 11.1115 93.873 11.6475 93.5649 12.174C94.412 12.7892 94.7232 11.4564 95.4675 11.8629C95.9319 12.4988 95.0676 12.7983 94.7938 13.4135C95.3223 13.2869 95.6294 13.2128 96.0051 13.1225C96.2279 13.7761 96.1165 14.3479 95.765 14.9621C95.9526 15.0353 96.1004 15.0928 96.3233 15.179C96.4821 15.3494 96.1523 15.3741 96.0963 15.6253C96.3172 15.9631 96.586 16.3746 96.9183 16.8834C99.1876 14.5022 102.081 12.9062 103.851 10.1866H105.23C105.124 10.6405 105.031 11.0369 104.904 11.579C105.287 11.4438 105.582 11.3399 105.987 11.1972V12.2643C106.208 12.3223 106.332 12.3545 106.456 12.3873C106.49 12.4645 106.545 12.5396 106.555 12.6198C106.571 12.7549 106.536 12.8981 106.563 13.0308C106.842 14.4589 106.131 15.592 105.385 16.6621C104.578 17.8199 103.641 18.8874 102.694 20.078C103.37 20.8894 104.451 21.2838 105.402 22.0412C105.419 22.1663 105.448 22.377 105.482 22.6196C105.734 22.9348 106.142 23.2399 106.257 23.6312C106.51 24.489 107.136 25.2877 106.711 26.3951C106.607 26.4425 106.378 26.555 106.144 26.6548C105.91 26.7542 105.671 26.8399 105.405 26.9433C105.041 26.5731 104.219 26.6906 104.329 25.97C103.49 25.7275 102.751 25.5137 102.035 25.3064C101.871 25.0215 101.722 24.7633 101.554 24.4713H100.035C99.9969 24.3074 99.9672 24.1834 99.9309 24.0301C99.3691 23.5979 98.8971 24.1067 98.5688 24.1945C98.12 24.7149 97.7766 25.1133 97.3969 25.5525C97.2879 25.4698 97.2007 25.4032 97.0494 25.2887C96.887 25.5182 96.7121 25.7653 96.4987 26.0663C96.4705 26.0295 96.5396 26.1188 96.642 26.2509C96.0046 26.4108 95.9491 27.0512 95.6687 27.5782C95.4483 27.4425 95.3036 27.3533 95.0817 27.2166C95.0439 27.4536 95.0071 27.6856 94.9627 27.9599C94.8679 27.9856 94.7444 28.0189 94.5235 28.0789C94.4645 28.6361 94.3853 29.3149 93.5593 29.1298C93.282 29.4894 92.817 29.8237 92.8488 30.1021C92.9436 30.9387 92.2431 31.3386 92.052 31.9926C91.9618 32.8191 91.9744 32.8186 92.231 33.3708C91.6325 33.8478 90.9567 34.1691 90.1807 34.3673C90.0793 34.2392 89.9658 34.097 89.8171 33.9089Z" fill="#3734A9"/>
<path fill-rule="evenodd" clip-rule="evenodd" d="M9.3898 18.3708C9.04739 18.4132 8.84114 18.4389 8.58093 18.4712C8.73928 18.6467 8.82954 18.746 8.97377 18.9059C8.63237 19.5407 7.98538 19.9215 7.54666 20.4767L7.76148 20.6915C7.41202 20.9658 7.06205 21.2402 6.76453 21.4736C6.60013 21.9068 6.95111 22.3955 6.3727 22.6637C6.88505 23.0071 7.35352 23.3137 7.81393 23.6314C9.25767 24.6289 10.8018 25.4847 11.9919 26.8281C12.6737 27.5971 13.3156 28.3404 13.3277 29.4447C13.3297 29.6308 13.5188 29.8144 13.6696 30.0872C13.2546 30.3499 12.8658 30.5955 12.3786 30.9036C9.63387 29.2955 6.7963 27.8623 4.19372 25.762C4.00714 25.8684 3.59968 25.9582 3.52454 26.1674C3.22652 26.9965 2.64256 27.5784 2.04802 28.172C1.9754 28.2446 2.00263 28.4165 1.98297 28.5436C1.72831 28.5718 1.51197 28.595 1.18167 28.6313C1.24521 28.8487 1.29917 29.0333 1.39347 29.3565C0.863976 29.7998 0.468622 30.4594 0.260355 31.2783C0.139329 31.7538 -0.316538 32.1436 -0.725003 32.718V35.7064C-0.98521 35.723 -1.20205 35.7366 -1.44763 35.7523C-1.50058 35.901 -1.55706 36.0604 -1.62463 36.2515H-2.57268C-2.72093 35.8218 -2.87272 35.3811 -3.04821 34.8733C-3.31195 34.9893 -3.57518 35.1048 -3.88884 35.2424C-3.95339 35.0427 -4.00432 34.8864 -4.05525 34.7301C-4.13291 34.6978 -4.21864 34.6262 -4.28873 34.6393C-4.87067 34.7498 -5.26905 34.2576 -5.34066 33.9444C-5.63263 32.6696 -6.45763 31.4089 -5.66541 30.0403C-5.65079 28.6848 -4.80915 27.6505 -4.3321 26.4715C-4.17628 26.0868 -3.5066 26.1543 -3.68814 25.4897C-3.76277 25.2164 -3.26656 24.7832 -3.02249 24.4277C-2.80111 24.1055 -2.59285 23.7711 -2.33819 23.4771C-2.03915 23.1317 -1.67506 22.8422 -1.37855 22.4953C-1.13196 22.2058 -0.941843 21.8685 -0.700294 21.5135C-2.37147 20.2583 -3.39364 18.4752 -4.56508 16.8126C-4.94076 15.204 -5.58977 13.6417 -5.33662 11.7582C-4.94984 11.314 -4.45514 10.7451 -3.92313 10.1344C-3.33414 10.2555 -2.67202 9.89038 -2.13395 10.5041C-2.48644 10.9791 -2.83641 11.4506 -3.18991 11.9272C-3.09259 12.03 -3.00232 12.1268 -2.91306 12.2217C-2.16673 12.376 -1.89341 11.2897 -1.1138 11.5414C-0.997817 11.7663 -0.882338 11.9917 -0.761311 12.2257C-1.00135 12.3795 -1.27618 12.556 -1.56463 12.7406C-1.38863 12.9171 -1.25903 13.0467 -1.12943 13.1763C-0.740131 12.7733 -0.361924 12.7683 0.0954561 13.3195C0.0541053 13.6266 0.292124 14.0703 -0.167273 14.4279C0.0233445 14.5196 0.209927 14.6094 0.47669 14.737C0.257329 15.032 0.0626788 15.2932 -0.136511 15.561C0.0490632 15.627 0.208415 15.683 0.541742 15.8015C0.235141 15.8842 0.0899091 15.9231 -0.164247 15.9916C-0.13752 16.215 -0.190973 16.5206 -0.0638952 16.6916C0.46257 17.3996 1.0435 18.0667 1.66628 18.8237C2.00919 18.516 2.27242 18.2871 2.52708 18.0496C4.03185 16.6467 5.29103 14.9644 7.15736 13.971C7.14727 13.4541 7.68836 13.4904 7.92134 13.2136C8.18508 12.9004 8.47806 12.612 8.66717 12.4097H9.59151C9.17245 13.0265 8.4584 13.3749 8.69137 14.2635C9.28844 13.9075 9.87289 13.559 10.5849 13.1349C10.5214 13.5419 10.472 13.8555 10.4165 14.212C10.6656 14.3376 11.0358 14.5257 11.4331 14.7264C11.3308 14.9387 11.245 15.1157 11.1452 15.323C11.2889 15.3532 11.414 15.3789 11.5446 15.4062C11.5582 15.4596 11.6106 15.5509 11.5854 15.5847C11.2506 16.0365 10.8023 16.4359 10.589 16.9366C10.3217 17.565 9.7322 17.8479 9.3898 18.3708Z" fill="#3734A9"/>
<path fill-rule="evenodd" clip-rule="evenodd" d="M34.4934 32.4083C35.5892 31.0639 36.5146 29.9465 37.4208 28.8133C38.279 27.7402 39.0128 26.5814 39.6799 25.3938C39.5947 25.2884 39.512 25.1866 39.3703 25.0121C39.6033 24.7479 39.8337 24.4856 40.0783 24.2078H40.9845C41.3234 24.5467 41.5962 25.0303 41.984 25.1538C42.4575 25.3041 42.5245 25.6828 42.7157 25.9657C43.3783 26.9455 43.8392 27.9399 43.3299 29.2168C43.0167 30.0019 42.6995 30.7876 42.3738 31.5692C42.2759 31.8047 42.2043 32.0513 42.0798 32.4099L41.3854 33.1047V33.9701C40.8418 34.9549 40.3894 35.7759 39.8942 36.6735C40.5785 37.1385 41.2089 37.5868 41.8584 38.0053C43.1453 38.8349 44.2098 39.8651 44.8457 41.2806C44.9824 41.5852 45.0449 41.9236 45.1871 42.3991C45.1382 42.5075 45.0187 42.7743 44.8866 43.0667C44.6032 43.1989 44.2971 43.3416 44.0581 43.4525C43.4116 43.2291 42.8397 43.0622 42.2931 42.8348C41.7459 42.6079 41.224 42.3204 40.691 42.0597C40.6002 41.2635 39.6925 41.5852 39.3189 41.0436C39.0123 40.5988 38.3305 40.4137 37.7324 40.0653C35.9402 41.8938 34.3618 43.8912 32.9135 45.9951C32.8021 46.1565 32.8379 46.4192 32.8056 46.6345C32.1742 47.1206 31.55 47.0465 30.9236 46.6048V46.1676C30.1097 45.6799 29.3468 45.223 28.5122 44.7228C28.1128 44.2548 28.316 43.5196 28.0558 42.9508C27.7659 42.3174 28.0109 41.7042 27.901 41.2382C28.8107 39.2105 29.8874 37.4345 31.4289 35.902V34.966C30.5379 34.3453 29.9842 33.3776 29.4234 32.4285C29.2353 32.1103 29.2061 31.6948 29.1198 31.3206C28.9449 30.5592 28.6831 29.8224 28.7063 29.0135C28.7512 27.4664 29.6297 26.3626 31.1067 25.8073C32.0381 25.4574 32.9428 25.6334 33.9443 25.535C33.4052 26.651 32.1137 26.5557 31.3588 27.4911C32.6609 27.4336 33.4541 26.2072 34.7819 26.4412C34.7304 26.7539 34.679 27.067 34.6245 27.3968C34.8681 27.4826 35.2256 27.6091 35.5695 27.7312V29.4775C35.2155 30.0952 34.8267 30.7114 34.5096 31.363C34.4072 31.5722 34.4934 31.8738 34.4934 32.4083Z" fill="#3734A9"/>
<path fill-rule="evenodd" clip-rule="evenodd" d="M57.7335 15.289C57.2187 15.9345 56.7487 16.5245 56.2288 17.176V18.9405C55.7452 19.1346 55.2747 19.3242 54.7432 19.5376C54.1148 18.9274 53.8602 18.118 53.659 17.353C53.3897 17.4534 53.1517 17.5416 52.7982 17.6727C52.5208 17.2739 52.1834 16.9214 52.0014 16.5018C51.4568 15.2446 51.5001 13.9023 51.5597 12.639C51.7881 12.1186 51.9918 11.6537 52.246 11.0733C51.8657 11.0163 51.5289 11.0692 51.3892 10.928C50.5007 10.0299 49.6237 9.11616 48.8093 8.15148C48.3706 7.63106 47.9077 7.04257 47.7327 6.40869C47.4775 5.48082 47.4715 4.48437 47.351 3.44808C47.7695 2.85959 48.1099 2.17024 48.6414 1.69521C49.13 1.25851 49.8249 1.05276 50.5783 0.669006C50.7538 0.859119 50.9248 1.04318 51.0977 1.23027C50.9969 1.32709 49.654 2.62056 49.654 2.62056C49.7508 2.71789 49.8481 2.81521 49.9913 2.95792C50.6061 2.50962 51.2183 1.92314 52.2177 2.30993C51.9696 2.64981 51.7765 2.91405 51.4371 3.37849C51.896 3.19947 52.1522 3.10013 52.5072 2.96196C52.6746 3.2141 52.8541 3.48489 53.072 3.81368C52.6928 4.1934 52.3947 4.49143 52.0352 4.85148C52.2672 4.89889 52.3922 4.92511 52.6 4.96797C52.2883 5.49343 52.4643 6.22009 51.661 6.48837C52.4583 7.46919 53.3458 8.00977 54.2464 8.60785C57.2782 6.09402 60.2438 3.63466 63.2493 1.14252H64.5761C64.3436 1.60848 64.159 1.98013 63.9719 2.35632C64.3703 2.6604 64.6855 2.319 65.0385 2.1657C66.0581 3.11727 66.2982 4.30535 66.0884 5.63059C65.6648 6.1742 65.2296 6.73244 64.7853 7.30227C64.8141 7.3285 64.8801 7.39002 65.0617 7.55794C64.8171 7.58921 64.5816 7.61946 64.3456 7.64972C64.4379 7.74856 64.5302 7.8479 64.6225 7.94724H64.1106C63.1681 9.72079 61.5751 10.9275 60.4087 12.5432C62.0073 13.4338 63.7959 14.0964 65.4873 15.1045C65.5387 15.3586 65.5967 15.6471 65.6648 15.9879C65.8726 15.7681 66.0284 15.6032 66.1787 15.4443C66.8594 15.5361 66.8453 16.3188 67.4167 16.6052C67.9169 16.8563 68.2089 17.523 68.5982 18.0121V19.645C68.4661 19.7771 68.3365 19.9067 68.1549 20.0882C66.7389 19.9369 65.568 19.1301 64.2785 18.4776C64.2523 18.5013 64.1565 18.588 64.1147 18.6258C63.2125 18.4029 62.6744 17.4347 61.6336 17.5795C61.1485 16.9557 60.3507 16.9072 59.7284 16.5396C59.0996 16.1685 58.4904 15.7656 57.7335 15.289Z" fill="#3734A9"/>
<path fill-rule="evenodd" clip-rule="evenodd" d="M97.7832 37.2611C98.0671 37.4214 98.2905 37.5475 98.6183 37.7326C98.5436 38.1803 98.468 38.6317 98.3757 39.1874C98.6062 39.5878 98.7993 40.1975 99.4987 40.4435C99.8119 40.0068 100.004 39.5071 100.607 39.263C101.03 39.0911 101.278 38.4885 101.603 38.0765C101.959 37.6231 102.454 37.3135 102.735 36.7613C102.971 36.2969 103.478 35.9792 103.799 35.5465C104.129 35.0992 104.379 34.5924 104.664 34.1123H106.214C106.296 34.547 106.43 34.9767 105.918 35.4255C106.36 35.4457 106.702 35.4613 107.014 35.4754C107.154 36.1168 107.28 36.6978 107.404 37.2656C107.181 37.3528 107.024 37.4144 106.837 37.487C106.857 37.613 106.854 37.7447 106.899 37.8566C107.282 38.8031 107.22 39.1279 106.483 39.8586C106.175 40.1632 106.047 40.6372 106.172 40.9332C106.368 41.3981 105.778 41.2191 106.057 41.6483C105.761 41.4047 105.669 41.328 105.508 41.1959V41.9619C105.218 42.0179 104.967 42.0658 104.668 42.1228V42.8747C104.316 43.2413 104.068 43.5005 103.861 43.7163C104.341 44.1858 104.783 44.6185 105.151 44.979V46.0148C105.447 46.3113 105.757 46.6215 106.075 46.9402C105.976 47.1156 105.913 47.2261 105.803 47.4202C105.947 47.7127 106.124 48.0728 106.352 48.5372C106.087 49.0909 105.794 49.7026 105.516 50.2835H104.37C103.034 49.5195 101.74 48.7777 100.449 48.0385C100.22 48.392 100.038 48.6734 99.8835 48.9119C99.6455 48.7959 99.4619 48.7061 99.1462 48.5523V49.8322C98.7277 49.6764 98.4352 49.5674 97.8876 49.3637C98.1135 49.6723 98.1755 49.7565 98.2945 49.9189C98.0424 50.1559 97.7756 50.4066 97.3535 50.8029C97.2688 50.2911 97.2159 49.9704 97.1579 49.6174C97.351 49.5508 97.5073 49.4968 97.706 49.4278C97.7257 49.3244 97.7494 49.1993 97.7781 49.0465C97.6042 48.986 97.4443 48.9315 97.2839 48.8761C97.3429 48.633 97.4029 48.3879 97.5048 47.9724C97.2501 48.2059 97.1518 48.2962 97.0933 48.3496C96.5079 48.2397 95.9542 48.1363 95.3707 48.0274C95.2809 47.8549 95.1645 47.63 95.0268 47.3668C95.1307 46.9644 95.2487 46.5075 95.3682 46.0415C95.637 46.0859 95.9784 46.1429 96.3198 46.1994C96.3339 46.1489 96.3475 46.0985 96.3621 46.0476C96.0056 45.8686 95.6496 45.6895 95.3354 45.5317C95.5195 45.1515 95.7025 44.7728 95.8931 44.3784C94.9885 42.8419 94.0026 41.3916 93.4454 39.7224C93.111 38.5727 93.5069 37.4365 93.6723 36.3049C93.8009 35.425 94.5286 34.8027 95.3248 34.3574C95.4383 34.2939 95.5457 34.2208 95.7272 34.1078H97.0948C97.3107 34.3236 97.5048 34.5183 97.6415 34.6549C97.3722 34.9242 97.0984 35.1975 96.936 35.3594V36.2056C97.2391 36.1269 97.53 36.0518 97.8628 35.9656C98.0373 36.1284 98.1972 36.2782 98.4191 36.4855C98.1861 36.7699 97.994 37.0044 97.7832 37.2611Z" fill="#3734A9"/>
<path fill-rule="evenodd" clip-rule="evenodd" d="M15.0757 51.386C15.231 51.5413 15.3606 51.6709 15.5442 51.8544C14.7015 52.5751 13.8634 53.2911 13.0258 54.0077C13.0445 54.0561 13.0637 54.1045 13.0828 54.1524C13.2608 54.1005 13.4782 54.096 13.6078 53.987C13.8498 53.7843 14.0404 53.5216 14.3728 53.456C14.9602 53.1247 15.5477 52.7929 16.1191 52.4702C16.6173 52.8731 16.2537 53.1913 16.0394 53.6799C16.3657 53.5564 16.577 53.4762 16.8044 53.3895C16.9037 53.4888 17.0333 53.6184 17.1634 53.7485C17.1639 54.2977 17.1639 54.8473 17.1639 55.4035C17.0036 55.5599 16.8402 55.7202 16.6672 55.8887C16.6924 55.9522 16.699 56.0399 16.7459 56.0742C17.0585 56.3087 17.3707 56.5462 17.7005 56.755C18.055 56.9789 18.5512 57.0435 18.5648 57.6168C18.5663 57.6829 18.6783 57.7575 18.7519 57.8095C19.0348 58.0086 19.3661 58.1594 19.5966 58.406C19.8265 58.6516 19.9571 58.99 20.1896 59.3873C20.1896 59.6198 20.1896 59.9864 20.1891 60.3525C19.9617 60.5794 19.7352 60.8064 19.5456 60.996C17.8114 60.3762 16.0974 59.764 14.3839 59.1518C14.0031 59.3551 13.5931 59.5734 13.1827 59.7918C13.1655 59.764 13.1484 59.7363 13.1312 59.7086C12.7747 60.0646 12.4182 60.4211 11.9628 60.8765C11.9563 60.9849 11.9432 61.1977 11.9265 61.469C11.2044 62.1634 10.4485 62.8911 9.8388 63.478C9.5327 64.4276 9.68802 65.4029 8.42279 65.6031C8.16107 65.1845 7.22109 65.1174 7.43541 64.1417C7.17521 64.0665 6.85549 63.9732 6.50704 63.8724C6.42837 63.9253 6.28667 64.0201 6.17623 64.0938C5.82223 63.7196 5.51311 63.3918 5.0638 62.9163C4.96344 62.0585 4.83485 60.9607 4.69971 59.8054C5.8419 58.5704 6.96744 57.3536 8.16157 56.0621C7.69461 55.7696 7.21303 55.5251 6.80053 55.1948C6.37391 54.8529 6.01436 54.4273 5.61447 54.0274C5.7249 53.6708 5.83736 53.3073 5.95838 52.9144C5.73448 52.8378 5.57463 52.7828 5.37594 52.7142V51.7854C5.45259 51.7082 5.54992 51.6114 5.66237 51.4984C6.05571 51.4203 6.46871 51.3381 6.97904 51.2362C8.33757 51.9987 9.82317 52.8322 11.2684 53.6426C12.7177 53.0914 13.6572 51.8201 15.0757 51.386Z" fill="#3734A9"/>
</svg>
