<svg width="1440" height="1061" viewBox="0 0 1440 1061" fill="none" xmlns="http://www.w3.org/2000/svg">
<rect width="1440" height="1061" fill="#26262F"/>
<path opacity="0.2" fill-rule="evenodd" clip-rule="evenodd" d="M-23.38 751.633C40.8275 779.465 207.534 822.523 360.832 772.102C384.807 764.216 401.438 754.534 412.694 743.59C423.956 732.639 429.815 720.443 432.272 707.575C434.726 694.718 433.782 681.206 431.467 667.615C429.795 657.802 427.403 647.92 425.052 638.204L425.052 638.203L425.045 638.175C424.144 634.452 423.249 630.755 422.403 627.094C416.272 600.569 412.723 576.062 427.405 557.697C434.747 548.511 446.693 540.809 465.298 535.178C483.905 529.546 509.141 525.996 543.021 525.094C645.045 522.379 714.974 546.115 774.2 566.218C793.642 572.818 811.932 579.026 829.825 583.778C866.021 593.391 900.574 597.03 939.684 585.812C978.781 574.597 1022.38 548.551 1076.7 498.897C1130.93 449.331 1176.22 434.58 1216.66 439.09C1257.13 443.603 1292.86 467.417 1327.96 495.26C1336.44 501.987 1344.89 508.951 1353.35 515.93C1379.88 537.806 1406.6 559.843 1435.24 575.269C1473.05 595.64 1514.27 604.528 1562.93 586.42L1562.58 585.483C1514.26 603.467 1473.34 594.659 1435.71 574.389C1407.17 559.013 1380.55 537.067 1354.04 515.206C1345.57 508.215 1337.1 501.232 1328.58 494.476C1293.48 466.627 1257.55 442.643 1216.77 438.096C1175.95 433.544 1130.39 448.47 1076.03 498.158C1021.76 547.758 978.299 573.695 939.409 584.85C900.532 596.002 866.174 592.397 830.081 582.811C812.27 578.081 794.032 571.89 774.622 565.301C715.374 545.189 645.215 521.374 542.994 524.094C509.068 524.997 483.733 528.553 465.008 534.22C446.281 539.888 434.133 547.679 426.623 557.072C411.601 575.864 415.312 600.859 421.429 627.32C422.282 631.011 423.182 634.731 424.087 638.47L424.088 638.471C426.436 648.175 428.815 658.006 430.481 667.783C432.787 681.32 433.712 694.698 431.289 707.388C428.869 720.066 423.103 732.073 411.997 742.873C400.883 753.68 384.4 763.297 360.519 771.152C207.54 821.469 41.0992 778.493 -22.9823 750.716L-23.38 751.633ZM340.629 740.019C187.331 790.441 20.6244 747.383 -43.5831 719.551L-43.1854 718.633C20.896 746.41 187.336 789.386 340.316 739.069C364.197 731.215 380.679 721.597 391.793 710.79C402.9 699.991 408.666 687.983 411.086 675.305C413.509 662.615 412.583 649.237 410.278 635.7C408.612 625.923 406.233 616.093 403.885 606.389L403.884 606.388C402.979 602.649 402.079 598.928 401.226 595.237C395.109 568.777 391.398 543.782 406.42 524.99C413.93 515.596 426.078 507.806 444.805 502.138C463.53 496.47 488.865 492.915 522.791 492.012C625.012 489.291 695.171 513.107 754.419 533.219C773.829 539.807 792.067 545.998 809.878 550.729C845.971 560.315 880.329 563.919 919.205 552.768C958.096 541.612 1001.56 515.676 1055.83 466.076C1110.19 416.388 1155.75 401.462 1196.57 406.013C1237.35 410.561 1273.27 434.544 1308.38 462.394C1316.9 469.15 1325.36 476.132 1333.84 483.123L1333.84 483.123C1360.35 504.984 1386.97 526.931 1415.51 542.306C1453.14 562.577 1494.06 571.384 1542.38 553.4L1542.72 554.337C1494.07 572.446 1452.85 563.558 1415.03 543.187C1386.4 527.76 1359.67 505.724 1333.15 483.848C1324.68 476.868 1316.24 469.905 1307.76 463.177C1272.66 435.334 1236.93 411.52 1196.46 407.007C1156.02 402.498 1110.73 417.248 1056.5 466.814C1002.18 516.468 958.578 542.515 919.481 553.729C880.371 564.947 845.818 561.308 809.622 551.695C791.729 546.943 773.439 540.735 753.996 534.135C694.771 514.032 624.842 490.296 522.818 493.011C488.938 493.913 463.702 497.463 445.095 503.095C426.489 508.726 414.544 516.429 407.201 525.614C392.519 543.98 396.068 568.487 402.2 595.012C403.039 598.643 403.927 602.311 404.82 606.003L404.842 606.092L404.849 606.121L404.849 606.122L404.849 606.123C407.201 615.838 409.592 625.72 411.263 635.532C413.578 649.123 414.523 662.635 412.069 675.493C409.612 688.361 403.753 700.556 392.491 711.507C381.235 722.452 364.604 732.134 340.629 740.019ZM-63.7862 687.469C0.421298 715.3 167.128 758.358 320.426 707.937C344.4 700.052 361.032 690.37 372.287 679.425C383.55 668.474 389.409 656.279 391.866 643.41C394.32 630.553 393.375 617.041 391.06 603.45C389.389 593.639 386.998 583.758 384.647 574.043L384.646 574.041L384.646 574.04L384.646 574.038L384.639 574.01L384.617 573.921C383.724 570.229 382.836 566.561 381.997 562.93C375.865 536.405 372.316 511.898 386.998 493.532C394.341 484.347 406.286 476.644 424.892 471.013C443.499 465.381 468.735 461.831 502.615 460.929C604.639 458.214 674.567 481.95 733.793 502.053C753.236 508.653 771.526 514.861 789.418 519.613C825.615 529.226 860.168 532.865 899.278 521.647C938.374 510.433 981.972 484.386 1036.3 434.732C1090.53 385.166 1135.81 370.416 1176.25 374.925C1216.73 379.438 1252.46 403.252 1287.56 431.095C1296.04 437.822 1304.48 444.786 1312.94 451.766C1339.47 473.642 1366.19 495.678 1394.83 511.105C1432.65 531.476 1473.87 540.364 1522.52 522.255L1522.17 521.318C1473.85 539.302 1432.93 530.495 1395.31 510.224C1366.76 494.849 1340.15 472.902 1313.64 451.041C1305.16 444.05 1296.69 437.068 1288.18 430.312C1253.07 402.462 1217.14 378.479 1176.36 373.931C1135.55 369.38 1089.99 384.305 1035.62 433.994C981.357 483.594 937.893 509.53 899.002 520.686C860.126 531.837 825.768 528.232 789.675 518.647C771.864 513.916 753.626 507.725 734.216 501.137C674.968 481.025 604.809 457.209 502.588 459.93C468.662 460.833 443.327 464.388 424.602 470.056C405.875 475.724 393.727 483.514 386.217 492.908C371.194 511.7 374.906 536.694 381.022 563.155C381.876 566.846 382.776 570.566 383.681 574.306L383.682 574.306C386.03 584.01 388.409 593.841 390.074 603.618C392.38 617.155 393.306 630.533 390.883 643.223C388.463 655.901 382.697 667.908 371.59 678.708C360.476 689.515 343.994 699.133 320.113 706.987C167.133 757.304 0.692905 714.328 -63.3885 686.551L-63.7862 687.469ZM-83.9893 655.386C-19.7818 683.218 146.925 726.276 300.222 675.855C324.197 667.969 340.829 658.287 352.084 647.343C363.347 636.392 369.206 624.197 371.662 611.328C374.117 598.471 373.172 584.959 370.857 571.368C369.186 561.557 366.795 551.676 364.444 541.961L364.443 541.959L364.443 541.957L364.442 541.956L364.435 541.928L364.413 541.836C363.52 538.144 362.633 534.477 361.794 530.848C355.662 504.322 352.113 479.816 366.795 461.45C374.138 452.265 386.083 444.562 404.689 438.931C423.295 433.299 448.532 429.749 482.412 428.847C584.436 426.132 654.364 449.868 713.59 469.971C733.033 476.571 751.323 482.779 769.215 487.531C805.411 497.144 839.965 500.783 879.075 489.565C918.171 478.35 961.769 452.304 1016.09 402.65C1070.32 353.084 1115.61 338.334 1156.05 342.843C1196.52 347.356 1232.25 371.17 1267.35 399.013C1275.83 405.74 1284.28 412.704 1292.74 419.684C1319.27 441.56 1345.99 463.596 1374.63 479.023C1412.44 499.394 1453.66 508.281 1502.32 490.173L1501.97 489.236C1453.65 507.22 1412.73 498.413 1375.1 478.142C1346.56 462.767 1319.95 440.82 1293.44 418.959C1284.96 411.968 1276.49 404.986 1267.97 398.23C1232.87 370.38 1196.94 346.397 1156.16 341.849C1115.34 337.298 1069.78 352.223 1015.42 401.912C961.154 451.512 917.689 477.448 878.799 488.604C839.922 499.755 805.565 496.15 769.472 486.565C751.661 481.834 733.422 475.643 714.013 469.054C654.765 448.943 584.606 425.127 482.385 427.848C448.458 428.751 423.124 432.306 404.399 437.974C385.672 443.642 373.523 451.432 366.014 460.825C350.991 479.617 354.703 504.612 360.819 531.073C361.673 534.764 362.573 538.484 363.478 542.224L363.478 542.224C365.827 551.928 368.206 561.759 369.871 571.536C372.177 585.073 373.103 598.451 370.68 611.141C368.26 623.819 362.494 635.826 351.387 646.626C340.273 657.433 323.791 667.05 299.91 674.905C146.93 725.222 -19.5102 682.246 -83.5916 654.469L-83.9893 655.386Z" fill="url(#paint0_linear_114_431)"/>
<defs>
<linearGradient id="paint0_linear_114_431" x1="1373.53" y1="456.374" x2="-69.8966" y2="456.374" gradientUnits="userSpaceOnUse">
<stop offset="0.0260417" stop-color="white" stop-opacity="0.85"/>
<stop offset="0.46875" stop-color="#F8EFF4" stop-opacity="0.1"/>
<stop offset="0.916667" stop-color="white" stop-opacity="0.8"/>
</linearGradient>
</defs>
</svg>
