<svg width="26" height="26" viewBox="0 0 26 26" fill="none" xmlns="http://www.w3.org/2000/svg">
<path d="M25.6748 7.76542C25.6605 6.69247 25.4596 5.63018 25.0812 4.62608C24.753 3.77913 24.2518 3.00995 23.6095 2.36768C22.9672 1.72541 22.1981 1.22417 21.3511 0.896C20.3599 0.523923 19.3128 0.322734 18.2543 0.301C16.8914 0.240084 16.4594 0.223083 12.9999 0.223083C9.54036 0.223083 9.09694 0.223084 7.74402 0.301C6.686 0.322893 5.63935 0.52408 4.64861 0.896C3.80152 1.22394 3.03222 1.7251 2.38992 2.3674C1.74762 3.0097 1.24647 3.779 0.918522 4.62608C0.545699 5.61652 0.344947 6.66341 0.324939 7.7215C0.264022 9.08575 0.245605 9.51783 0.245605 12.9773C0.245605 16.4368 0.245605 16.8788 0.324939 18.2332C0.346189 19.2928 0.545939 20.3383 0.918522 21.3314C1.24702 22.1782 1.74854 22.9472 2.39106 23.5893C3.03357 24.2313 3.80295 24.7322 4.65002 25.0601C5.63805 25.4471 6.68488 25.6627 7.74544 25.6976C9.10969 25.7585 9.54177 25.7769 13.0013 25.7769C16.4608 25.7769 16.9042 25.7769 18.2571 25.6976C19.3156 25.6767 20.3628 25.476 21.3539 25.104C22.2007 24.7754 22.9697 24.2741 23.6119 23.6319C24.2541 22.9896 24.7555 22.2206 25.084 21.3739C25.4566 20.3822 25.6564 19.3368 25.6776 18.2757C25.7385 16.9128 25.7569 16.4807 25.7569 13.0198C25.7541 9.56033 25.7541 9.12117 25.6748 7.76542ZM12.9914 19.5195C9.37319 19.5195 6.44211 16.5884 6.44211 12.9703C6.44211 9.35208 9.37319 6.421 12.9914 6.421C14.7283 6.421 16.3942 7.11101 17.6224 8.33923C18.8506 9.56745 19.5406 11.2333 19.5406 12.9703C19.5406 14.7072 18.8506 16.373 17.6224 17.6013C16.3942 18.8295 14.7283 19.5195 12.9914 19.5195ZM19.8013 7.70592C19.6007 7.7061 19.402 7.66673 19.2166 7.59005C19.0313 7.51337 18.8628 7.40088 18.721 7.25904C18.5791 7.11719 18.4667 6.94876 18.39 6.76339C18.3133 6.57802 18.2739 6.37935 18.2741 6.17875C18.2741 5.97829 18.3136 5.7798 18.3903 5.5946C18.467 5.4094 18.5795 5.24113 18.7212 5.09938C18.8629 4.95764 19.0312 4.8452 19.2164 4.76849C19.4016 4.69177 19.6001 4.65229 19.8006 4.65229C20.001 4.65229 20.1995 4.69177 20.3847 4.76849C20.5699 4.8452 20.7382 4.95764 20.8799 5.09938C21.0217 5.24113 21.1341 5.4094 21.2108 5.5946C21.2875 5.7798 21.327 5.97829 21.327 6.17875C21.327 7.02308 20.6442 7.70592 19.8013 7.70592Z" fill="black"/>
<path d="M12.9916 17.2245C15.3411 17.2245 17.2458 15.3198 17.2458 12.9703C17.2458 10.6207 15.3411 8.716 12.9916 8.716C10.642 8.716 8.7373 10.6207 8.7373 12.9703C8.7373 15.3198 10.642 17.2245 12.9916 17.2245Z" fill="black"/>
</svg>
